<?xml version="1.0" encoding="utf-8"?>
<!-- Generator: Adobe Illustrator 23.1.1, SVG Export Plug-In . SVG Version: 6.00 Build 0)  -->
<svg version="1.1" id="Layer_1" xmlns="http://www.w3.org/2000/svg" xmlns:xlink="http://www.w3.org/1999/xlink" x="0px" y="0px"
	 viewBox="0 0 118.9 74.5" style="enable-background:new 0 0 118.9 74.5;" xml:space="preserve">
<style type="text/css">
	.st0{fill:#003F2D;}
	.st1{fill:#FFFFFF;}
	.st2{fill:#CED3BA;}
	.st3{fill:#BCC1A3;}
</style>
<g>
	<path class="st0" d="M50.1,62.1c0.3-1.4,0.4-2.9,0.4-4.5c0-4.2-0.9-8.1-2.5-12.2l-0.9,0.3c0.3,1,0.5,1.8,0.5,3c0,3-1.8,5.9-7.1,5.9
		c-7.4,0-11.9-4.3-21.6-4.3c-5.3,0-9.5,2.1-12.4,5.2l-1-0.6c3.5-4.1,9.6-7,17.8-7.5c18.7-1,26.9-7,26.9-16.9
		c0-9.5-8.1-15.8-21.6-16.9l0.4-3.1l-6.2-5.1l-6.2,4.7l-3.5,0.2l3.6,4c-1.8,0.3-3.5,0.7-5,1.2l-0.6-2.3L6,18.3c-4.1,3-6,7.1-6,11.9
		c0,6.1,4.9,10.1,10.2,10.1c5.4,0,10.3-3.6,10.3-9.8c0-5.7-3.5-8.8-7.2-9.7l-1-3.7c0.3,0,0.7-0.1,1-0.1C19.2,17,25,21.6,25,30.5
		c0,7.5-3.6,12.5-8.4,15.1C7.2,50.8,1.1,55.2,1.1,63.7c0,5.4,3.9,9.9,9.4,9.9c2.2,0,4.1-0.7,5.5-1.9l0,0l0,0
		c0.2-0.1,0.3-0.3,0.4-0.4l5.7-5.7c3.6,4,7.3,8.5,14.7,8.5c3.5,0,6.4-1.1,8.7-3.1l0,0l0,0c0.4-0.4,8.3-8.3,8.3-8.3L50.1,62.1z
		 M19.2,62.8l-3.7-0.5c-0.8-0.7-1.7-1.1-2.8-1.4l0.6-1.3h-0.1C15.6,60,17.5,61.2,19.2,62.8z"/>
	<path class="st0" d="M115.1,59.5l-3.8-0.6c0-0.2,0-0.4,0-0.6c0-10.4-8-14.7-17-15.9c-0.2,0-0.2-0.3,0-0.3c7.8-0.9,14.4-6,14.4-14
		c0-6.6-5-11.4-13.8-13.4l0.8-2.3l-2.3-8.1l-6.1,1.9l-1.1,7.4c-0.5,0-1.1,0-1.7,0c-15.2,0-24.2,5.7-24.2,14.6c0,8,6.6,13,14.4,13.9
		c0.2,0,0.2,0.3,0,0.3c-9.1,1.2-17.1,5.5-17.1,15.7c0,9.9,10.9,16.4,26.8,16.4c10.9,0,19.4-3.1,23.7-8.1L115.1,59.5z M84.4,41.9
		c-2.7,0-3.8-4.3-3.8-13.5c0-10.3,1.1-13.7,3.8-13.7c0.5,0,1,0.1,1.4,0.4l-0.5,3l2.3,0.8c0.4,2.2,0.6,5.3,0.6,9.5
		C88.3,37.6,87.1,41.9,84.4,41.9z"/>
</g>
<g>
	<path class="st1" d="M4.8,51.8c0.1,0.4,0.5,0.3,0.5-0.1c-0.2-7.5,6.2-14.9,16.1-14.9c9.8,0,14.2,4.3,21.6,4.3
		c5.3,0,7.1-2.9,7.1-5.9c0-1.2-0.2-2-0.5-3l0.9-0.3c1.6,4.1,2.5,8,2.5,12.2c0,9.9-5.5,16.5-13.9,16.5c-13.4,0-14.8-14.7-25.1-14.7
		c-5.9,0-8.7,6.1-5.9,10.3c0.2,0.4,0.6,0.2,0.5-0.2c-2.2-4.4,0.7-8.8,5-8.8c4.1,0,6.6,2.9,6.6,6.6c0,4-3.4,6.4-7.5,6.4
		c-5.5,0-9.4-4.5-9.4-9.9c0-8.5,6.2-13,15.5-18.1c4.8-2.7,8.4-7.6,8.4-15.1c0-8.9-5.8-13.5-11.7-13.5C11.1,3.6,5.2,7,3.9,13.5
		c-0.2,0.7,0.5,0.9,0.8,0.1c1-3.7,4.3-6.5,8.6-6.5c4.4,0,9.5,3.1,9.5,10c0,6.2-4.9,9.8-10.3,9.8c-5.3,0-10.2-4.1-10.2-10.1
		c0-9.4,7.6-16.5,24.8-16.5c15.9,0,25.7,6.6,25.7,17c0,9.8-8.2,15.8-26.9,16.9C11.8,34.8,3.6,43.2,4.8,51.8z"/>
	<path class="st1" d="M60.1,44.5c0-10.1,8-14.5,17.1-15.7c0.2,0,0.2-0.3,0-0.3c-7.8-0.8-14.5-5.9-14.5-13.9c0-8.9,9-14.6,24.2-14.6
		c15.3,0,24.3,5.7,24.3,14.5c0,8-6.6,13.1-14.4,14c-0.2,0-0.2,0.3,0,0.3c9.1,1.2,17,5.5,17,15.9c0,9.6-10.8,16.2-26.8,16.2
		S60.1,54.4,60.1,44.5z M90.8,14.9c0-10.3-1.2-13.7-3.9-13.7s-3.8,3.4-3.8,13.7c0,9.2,1.2,13.5,3.8,13.5
		C89.6,28.4,90.8,24.1,90.8,14.9z M90.7,44.3c0-12.7-1.1-15.2-3.8-15.2c-2.7,0-3.8,2.5-3.8,15.2c0,13.3,1.6,15.5,3.8,15.5
		C89.3,59.8,90.7,57.5,90.7,44.3z"/>
</g>
<path class="st2" d="M83.1,44.3c0-12.7,1.2-15.2,3.8-15.2c1,0,1.8,0.3,2.4,1.4c0.2,0.6,0.4,1,0.6,1.5c0.2,0.8,0.4,1.8,0.5,3
	c-1.4,1.3-2.1,5.1-2.1,14.6c0,4.2,0.2,7.2,0.4,9.5c-0.5,0.6-1.1,0.8-1.8,0.8C84.6,59.8,83.1,57.5,83.1,44.3z M90.4,7
	c-0.5-4.3-1.7-5.9-3.5-5.9c-2.7,0-3.8,3.4-3.8,13.7c0,9.2,1.2,13.5,3.8,13.5c0.7,0,1.3-0.3,1.8-0.8c-0.3-2-0.4-4.4-0.4-7.4
	C88.3,12.3,88.9,8.4,90.4,7z M71.9,29.2L71.9,29.2c0.2,0.2,0.4,0.4,0.6,0.5c1.5-0.4,3-0.7,4.6-0.9c0.2,0,0.2-0.3,0-0.3
	c-4.4-0.5-8.5-2.3-11.1-5.3h-0.1L71.9,29.2z M111.2,14.6c0,8-6.6,13.1-14.4,14c-0.2,0-0.2,0.3,0,0.3c3.9,0.5,7.6,1.6,10.6,3.6
	c5.2-2.2,9.1-6.6,9.1-12.6c0-3.2-1.2-5.9-3.3-8.2l0,0L108,6.5l0,0C110,8.6,111.2,11.4,111.2,14.6z M27.3,18
	c-0.6-1.5-1.6-2.7-2.7-3.6l-3.7-3.7c1.2,1.6,2.1,3.7,2.1,6.4c0,6.2-4.9,9.8-10.3,9.8c-2.4,0-4.7-0.8-6.5-2.3l3.7,3.7
	c1.9,2.4,4.9,3.8,8,3.8c0.5,0,1,0,1.5-0.1C23.7,29.3,27,24.7,27.3,18z M15.6,3.6C11.2,3.6,5.3,7,4,13.5c-0.2,0.7,0.5,0.9,0.8,0.1
	c1-3.7,4.3-6.5,8.6-6.5c1.9,0,4,0.6,5.7,1.9c0.6-0.1,1.2-0.2,1.7-0.2c1.7,0,3.4,0.4,4.9,1.1C23.6,5.7,19.6,3.6,15.6,3.6z M114,38.7
	l-3.4-3.4c2,2.4,3.1,5.5,3.1,9.4c0,9.6-10.8,16.2-26.8,16.2c-9.7,0-17.5-2.4-22.1-6.5l3.7,3.7c4.4,5,12.8,8,23.6,8
	c16,0,26.8-6.6,26.8-16.2C119,44.9,117,41.2,114,38.7z M62.8,52.4L62.8,52.4l0.5,0.6C63.1,52.8,63,52.6,62.8,52.4z M23.1,53.8
	l-2.7-2.7c1.9,0.2,3.5,1,5,2.1c-3.3-3.7-6.2-7.4-11.4-7.4c-5.9,0-8.7,6.1-5.9,10.3c0.2,0.4,0.6,0.2,0.5-0.2c-2.2-4.4,0.7-8.8,5-8.8
	c4.1,0,6.6,2.9,6.6,6.6c0,4-3.4,6.4-7.5,6.4c-2.4,0-4.5-0.9-6.1-2.3l4.5,4.5c0.2,0.2,0.4,0.5,0.7,0.7l0.1,0.1l0,0
	c1.6,1.4,3.7,2.2,6,2.2c4.1,0,7.5-2.4,7.5-6.4C25.4,56.9,24.6,55,23.1,53.8z M55.8,37.1L55.8,37.1L55.8,37.1L55.8,37.1l-3.5-3.5
	C56.2,30.8,58,27,58,22.3c0-0.4,0-0.7,0-1.1c-0.3-4.2-2.2-7.8-5.6-10.4l-2.6-2.6c1.9,2.5,3,5.5,3,8.8c0,9.8-8.2,15.8-26.9,16.9
	C11.8,34.7,3.7,43.1,4.8,51.7c0.1,0.4,0.5,0.3,0.5-0.1c-0.2-7.5,6.2-14.9,16.1-14.9c5.1,0,8.7,1.2,12,2.3c7.2-0.6,12.7-2,16.7-4.1
	c0-1.1-0.3-1.8-0.5-2.8l0.9-0.3c1.6,4.1,2.5,8,2.5,12.2c0,9.9-5.5,16.5-13.9,16.5c-4.1,0-7.1-1.4-9.5-3.3c3.6,4,7.4,8.5,14.8,8.5
	c8.4,0,13.9-6.6,13.9-16.5C58.3,45.1,57.4,41.2,55.8,37.1L55.8,37.1z"/>
<path class="st3" d="M21.8,58.8c-1-1-2.7-1.2-3.8-0.3c-1.4,1.1-3.2,1.7-5.3,1.7c-2.4,0-4.5-0.9-6.1-2.3l4.5,4.5
	c0.2,0.2,0.4,0.5,0.7,0.7l0.1,0.1l0,0c1.6,1.4,3.7,2.2,6,2.2c1.6,0,3.1-0.4,4.3-1c1.7-0.9,2-3.2,0.6-4.6L21.8,58.8z"/>
<path class="st3" d="M50.6,58.5c-1-1-2.6-1.1-3.7-0.3c-2.1,1.5-4.7,2.3-7.7,2.3c-4.1,0-7.1-1.4-9.5-3.3c3.6,4,7.4,8.5,14.8,8.5
	c2.5,0,4.7-0.6,6.6-1.7c1.7-0.9,2-3.2,0.7-4.6L50.6,58.5z"/>
<path class="st3" d="M14,45.8c-5.9,0-8.7,6.1-5.9,10.3c0.2,0.4,0.6,0.2,0.5-0.2c-2.2-4.4,0.7-8.8,5-8.8c1.6,0,3,0.5,4,1.2l0,0l0,0
	c0.4,0.3,0.8,0.7,1.2,1.2l1.6,1.6l0.1,0.1v-0.1c1.9,0.2,3.5,1,5,2.1C22.1,49.5,19.2,45.8,14,45.8z"/>
<path class="st3" d="M54.9,24.5c-1.3-1.3-3.4-1.1-4.4,0.4c-3.6,5.2-11.5,8.3-24.6,9C11.8,34.7,3.7,43.1,4.8,51.7
	c0.1,0.4,0.5,0.3,0.5-0.1c-0.2-7.5,6.2-14.9,16.1-14.9c5.1,0,8.7,1.2,12,2.3c7.2-0.6,12.7-2,16.7-4.1c0-1.1-0.3-1.8-0.5-2.8l0.9-0.3
	l0,0l1.7,1.7c1.8-1.3,3.2-2.9,4.2-4.6c0.6-1.1,0.4-2.5-0.5-3.4L54.9,24.5z"/>
<g>
	<path class="st3" d="M108.5,58.9l-0.8-0.8c-0.9-0.9-2.2-1.1-3.3-0.6c-4.5,2.2-10.5,3.4-17.4,3.4c-9.7,0-17.5-2.4-22.1-6.5l3.7,3.7
		c4.4,5,12.8,8,23.6,8c5.9,0,11.1-0.9,15.4-2.5C109.4,62.9,109.9,60.4,108.5,58.9z"/>
	<path class="st3" d="M63.3,52.9c-0.1-0.1-0.1-0.1-0.2-0.2l0,0L63.3,52.9z"/>
</g>
<path class="st3" d="M71.9,29.2L71.9,29.2c0.2,0.2,0.4,0.4,0.6,0.5c1.5-0.4,3-0.7,4.6-0.9c0.2,0,0.2-0.3,0-0.3
	c-4.4-0.5-8.5-2.3-11.1-5.3h-0.1L71.9,29.2z"/>
<path class="st3" d="M96.7,28.8c3.9,0.5,7.6,1.6,10.6,3.6c1.8-0.8,3.5-1.8,4.9-3.1c1.2-1.1,1.2-3,0.1-4.2l-1.2-1.2
	c-1.1-1.1-2.9-1.1-4,0c-2.7,2.5-6.4,4.1-10.4,4.6C96.5,28.5,96.5,28.8,96.7,28.8z"/>
<path class="st3" d="M17.8,32c0.5,0,1,0,1.5-0.1c2.5-1.5,4.7-3.6,6.1-6.4L24,24.1C22.9,23,21.1,23,20,24c-1.9,1.8-4.6,2.8-7.4,2.8
	c-2.4,0-4.7-0.8-6.5-2.3l3.7,3.7C11.7,30.6,14.7,32,17.8,32z"/>
<path class="st3" d="M15.6,3.6C11.2,3.6,5.3,7,4,13.5c-0.2,0.7,0.5,0.9,0.8,0.1c1-3.7,4.3-6.5,8.6-6.5c1.9,0,4,0.6,5.7,1.9
	c0.6-0.1,1.2-0.2,1.7-0.2c1.7,0,3.4,0.4,4.9,1.1C23.6,5.7,19.6,3.6,15.6,3.6z"/>
<path class="st3" d="M89,10.4c0.3-1.7,0.8-2.8,1.5-3.4C90,2.7,88.8,1.1,87,1.1c-2.2,0-3.3,2.2-3.7,8.5c0,0.8,0.3,1.6,0.8,2.2l0,0
	C85.7,13.5,88.5,12.7,89,10.4z"/>
<path class="st3" d="M89.3,30.5c-0.6-1.1-1.4-1.4-2.4-1.4c-2.1,0-3.3,1.6-3.7,8.6c0,0.8,0.3,1.6,0.8,2.2l0,0
	c1.6,1.6,4.4,0.8,4.9-1.5c0.3-1.8,0.8-2.9,1.4-3.5c-0.1-1.2-0.3-2.2-0.5-3C89.6,31.5,89.4,31,89.3,30.5z"/>
</svg>
