<?xml version="1.0" encoding="utf-8"?>
<!-- Generator: Adobe Illustrator 23.1.1, SVG Export Plug-In . SVG Version: 6.00 Build 0)  -->
<svg version="1.1" id="Layer_1" xmlns="http://www.w3.org/2000/svg" xmlns:xlink="http://www.w3.org/1999/xlink" x="0px" y="0px"
	 viewBox="0 0 990 605" style="enable-background:new 0 0 990 605;" xml:space="preserve">
<style type="text/css">
	.st0{fill:#FFFFFF;}
	.st1{fill:none;stroke:#00563F;stroke-width:2;stroke-miterlimit:10;}
	.st2{fill:#00563F;}
</style>
<path class="st0" d="M495,605c-24.4,0.1-47.8-9.6-65-26.9c-41.1-41.1-97-64.3-155.1-64.3h-131c-28.5,0-51.7-23.2-51.7-51.7v-0.3
	c-0.1-18.7-7.5-36.6-20.7-49.9L27,367.6c-36-35.8-36.1-94-0.2-130c0.1-0.1,0.2-0.2,0.2-0.2l44.5-44.3c13.2-13.3,20.7-31.2,20.7-49.9
	c0-28.6,23.2-51.7,51.7-51.7h130.7c28.8,0,57.4-5.6,84-16.7c26.6-11,50.8-27.2,71.1-47.6l0.4-0.3C466-9,524.2-9,560.1,26.9l0,0
	l0.3,0.3c20.4,20.4,44.5,36.6,71.2,47.6c26.6,11.1,55.2,16.7,84,16.7h130.5c28.5,0,51.7,23.2,51.7,51.7v0.4
	c0.1,18.8,7.6,36.8,20.9,50l44.1,43.6c36.1,35.7,36.4,93.9,0.7,130c-0.2,0.2-0.3,0.3-0.5,0.5l-44.4,44.1
	c-13.2,13.2-20.7,31.2-20.8,49.9v0.3c0,28.5-23.2,51.7-51.7,51.7h-131c-58.2,0-114,23.2-155.1,64.3C542.8,595.4,519.4,605.1,495,605
	z"/>
<path class="st1" d="M495,587.2c-19.7,0-38.5-7.8-52.4-21.7C398.1,521,337.8,496,274.9,496h-131c-18.7-0.1-33.8-15.2-33.9-33.9v-0.3
	c-0.1-23.4-9.4-45.9-26-62.5L39.6,355c-29-28.9-29.1-75.9-0.2-104.8c0.1-0.1,0.1-0.1,0.2-0.2L84,205.7c16.6-16.6,25.9-39,26-62.5
	c0-18.7,15.2-33.9,33.9-33.9h130.6c31.1,0,62-6.1,90.8-18.1c28.8-11.9,54.9-29.4,76.9-51.4l0.3-0.3c29-28.9,75.9-28.9,104.8,0
	l0.3,0.3c22,22,48.2,39.5,76.9,51.4c28.8,12,59.6,18.1,90.8,18.1h130.6c18.7,0.1,33.9,15.2,33.9,33.9v0.4
	c0.1,23.5,9.5,46.1,26.2,62.7l44.1,43.6c29.1,28.8,29.3,75.7,0.5,104.8c-0.1,0.1-0.3,0.3-0.4,0.4L906,399.3
	c-16.6,16.6-25.9,39.1-26,62.5v0.3c0,18.7-15.2,33.9-33.9,33.9h-131c-62.9,0-123.2,25-167.6,69.5C533.6,579.5,514.7,587.3,495,587.2
	z"/>
<path class="st1" d="M944,256.3l-44-43.7c-18.4-18.2-28.8-43.1-28.8-69v-0.4c0-13.8-11.1-25-24.9-25c0,0,0,0-0.1,0H715.5
	c-65.3,0-127.9-25.9-174-72.1l-0.3-0.3c-25.5-25.5-66.8-25.5-92.3,0l-0.3,0.3c-46.1,46.2-108.7,72.1-174,72.1H144
	c-13.8,0-25,11.2-25,25c0,0,0,0,0,0.1l0,0c0,25.8-10.3,50.6-28.6,68.8l-44.5,44.3c-25.5,25.4-25.6,66.8-0.2,92.3
	c0.1,0.1,0.1,0.1,0.2,0.2L90.3,393c18.3,18.2,28.6,43,28.6,68.8v0.3c0,13.8,11.2,25,25,25l0,0h131c65.3,0,127.9,25.9,174,72.1l0,0
	c25.5,25.5,66.8,25.5,92.3,0l0,0c46.1-46.2,108.7-72.1,174-72.1h131c13.8,0,25-11.2,25-25v-0.3c0-25.8,10.3-50.6,28.6-68.8
	l44.4-44.1c25.5-25.4,25.6-66.7,0.2-92.3C944.3,256.5,944.2,256.4,944,256.3z"/>
<path class="st1" d="M495,569.5c-15,0-29.3-5.9-39.9-16.5c-47.8-47.8-112.6-74.7-180.3-74.7h-131c-8.9,0-16.1-7.2-16.2-16.2v-0.3
	c-0.1-28.2-11.3-55.1-31.2-75.1l-44.5-44.3c-22.1-22-22.1-57.6-0.2-79.7c0.1-0.1,0.1-0.1,0.2-0.2l44.5-44.3
	c19.9-19.9,31.1-46.9,31.2-75.1c0-8.9,7.2-16.2,16.2-16.2h130.7c33.5,0,66.6-6.6,97.6-19.4c30.9-12.8,59-31.6,82.7-55.3l0.3-0.3
	c22-22,57.7-22,79.7,0l0,0l0.3,0.3c23.7,23.7,51.8,42.5,82.7,55.3s64.1,19.4,97.6,19.4H846c8.9,0,16.2,7.2,16.2,16.2v0.4
	c0.1,28.3,11.4,55.4,31.4,75.3l44.1,43.6c22.1,21.9,22.3,57.6,0.4,79.7c-0.1,0.1-0.2,0.2-0.3,0.3l-44.4,44.1
	c-19.9,19.9-31.1,46.9-31.2,75.1v0.3c0,8.9-7.2,16.2-16.2,16.2H715c-67.6,0-132.5,26.9-180.3,74.7C524.3,563.6,510,569.6,495,569.5z
	"/>
<path class="st2" d="M315.5,425.9l-1.2-3.3h-8.8l-1.1,3.3h-3l7.5-21.6h2l7.5,21.6H315.5z M310,408.9l-3.5,11.2h7L310,408.9z"/>
<path class="st2" d="M328.4,406.7h-5.6v-2.5h14v2.5h-5.6v19.1h-2.8V406.7z"/>
<path class="st2" d="M357.7,422.8c0,0.1,0.2,0.1,0.2,0c0.1-3.4,2.9-6,6.2-5.9h0.1c3.9,0,5.6,1.7,8.6,1.7c2.1,0,2.8-1.1,2.8-2.3
	c0-0.4-0.1-0.8-0.2-1.2l0.4-0.1c0.6,1.5,1,3.2,1,4.8c0,3.9-2.2,6.5-5.5,6.5c-5.3,0-5.9-5.8-10-5.8c-1.4-0.1-2.7,1.1-2.7,2.5
	c0,0.5,0.1,1.1,0.4,1.5c0.1,0.2,0.2,0.1,0.2-0.1c-0.7-1.1-0.3-2.5,0.8-3.2c0.4-0.2,0.8-0.3,1.2-0.3c1.4-0.1,2.5,1,2.6,2.4
	c0,0.1,0,0.2,0,0.2c0,1.6-1.3,2.5-3,2.5c-2.1,0-3.7-1.7-3.7-3.8v-0.1c0-3.4,2.4-5.1,6.1-7.2c2.2-1.2,3.5-3.5,3.3-6
	c0-3.5-2.3-5.4-4.6-5.4c-2.2,0.1-4.1,1.7-4.6,3.9c-0.1,0.3,0.2,0.4,0.3,0c0.4-1.5,1.8-2.6,3.4-2.6c2.1,0,3.8,1.7,3.8,3.7
	c0,0.1,0,0.2,0,0.3c0,2.1-1.7,3.9-3.9,3.9c-0.1,0-0.2,0-0.2,0c-2.2,0-4-1.7-4-3.9c0,0,0,0,0-0.1c0-3.7,3-6.5,9.8-6.5
	c6.3,0,10.2,2.6,10.2,6.7c0,3.9-3.2,6.3-10.7,6.7C360.4,416.1,357.2,419.4,357.7,422.8z"/>
<path class="st2" d="M380.8,419.9c0-4,3.2-5.8,6.8-6.2h0.1v-0.1c0,0,0,0-0.1,0c-3.1-0.3-5.7-2.4-5.7-5.5c0-3.5,3.6-5.8,9.6-5.8
	s9.6,2.2,9.6,5.7c0,3.1-2.6,5.2-5.7,5.5h-0.1v0.1c0,0,0,0,0.1,0c3.6,0.5,6.7,2.2,6.7,6.3c0,3.8-4.3,6.4-10.6,6.4
	S380.8,423.8,380.8,419.9z M393,408.2c0-4.1-0.5-5.4-1.5-5.4s-1.5,1.4-1.5,5.4c0,3.6,0.5,5.4,1.5,5.4S393,411.8,393,408.2z
	 M393,419.8c0-5-0.4-6-1.5-6s-1.5,1-1.5,6c0,5.3,0.6,6.1,1.5,6.1S393,425.1,393,419.8L393,419.8z"/>
<path class="st2" d="M444.6,425.9h-2.8v-15.1l-6.2,15.1h-2.2l-6.2-15.1v15.1h-2.8v-21.6h2.8l7.4,17.3l7.4-17.3h2.7L444.6,425.9z"/>
<path class="st2" d="M466.7,425.9l-1.2-3.3h-8.8l-1.1,3.3h-3l7.5-21.6h2l7.5,21.6H466.7z M461.2,408.9l-3.5,11.2h7L461.2,408.9z"/>
<path class="st2" d="M477.8,404.2h7.6c1,0,2.1,0.2,3.1,0.6c0.9,0.4,1.7,0.9,2.3,1.6c0.6,0.7,1.2,1.5,1.5,2.4
	c0.4,0.9,0.5,1.8,0.5,2.8c0,0.8-0.1,1.5-0.3,2.3c-0.2,0.7-0.6,1.4-1,2s-0.9,1.1-1.5,1.6s-1.3,0.8-2,1.1l4.5,7.4h-3.2l-4.3-6.9h-4.5
	v6.9h-2.8L477.8,404.2z M485.4,416.4c1.3,0,2.5-0.5,3.4-1.4c0.4-0.4,0.7-1,0.9-1.5c0.2-0.6,0.3-1.3,0.3-1.9s-0.1-1.3-0.3-1.8
	c-0.2-0.6-0.5-1.1-0.9-1.5s-0.9-0.8-1.5-1c-0.6-0.3-1.2-0.4-1.9-0.4h-4.8v9.6L485.4,416.4z"/>
<path class="st2" d="M504.9,416v9.8h-2.8v-21.6h2.8v9.8l9.1-9.8h3.6l-9.9,10.8l9.9,10.8H514L504.9,416z"/>
<path class="st2" d="M528.7,406.7v7.1h9.3v2.5h-9.3v7h9.3v2.5h-12.2v-21.7H538v2.5h-9.3V406.7z"/>
<path class="st2" d="M551.9,406.7h-5.6v-2.5h14v2.5h-5.6v19.1h-2.8L551.9,406.7z"/>
<path class="st2" d="M582,404.2h7.6c1,0,2.1,0.2,3.1,0.6c0.9,0.4,1.7,0.9,2.3,1.6s1.2,1.5,1.5,2.4c0.4,0.9,0.5,1.8,0.5,2.8
	s-0.2,1.9-0.5,2.8c-0.7,1.8-2.1,3.3-3.8,4c-1,0.4-2,0.6-3.1,0.6h-4.8v6.9H582V404.2z M589.6,416.4c0.7,0,1.3-0.1,1.9-0.4
	c0.5-0.2,1-0.6,1.5-1c0.4-0.4,0.7-1,0.9-1.5c0.2-0.6,0.3-1.2,0.3-1.9c0-0.6-0.1-1.3-0.3-1.8c-0.2-0.6-0.5-1.1-0.9-1.5
	s-0.9-0.8-1.5-1c-0.6-0.3-1.2-0.4-1.9-0.4h-4.8v9.6L589.6,416.4z"/>
<path class="st2" d="M616,423.3v2.5h-10v-21.7h2.8v19.1L616,423.3z"/>
<path class="st2" d="M636.5,425.9l-1.2-3.3h-8.8l-1.1,3.3h-3l7.5-21.6h2l7.5,21.6H636.5z M631,408.9l-3.5,11.2h7L631,408.9z"/>
<path class="st2" d="M667.3,419.2c-0.3,1-0.7,2-1.3,2.8c-0.6,0.9-1.4,1.6-2.2,2.3c-0.9,0.7-1.9,1.2-3,1.5c-1.2,0.4-2.4,0.6-3.6,0.6
	c-1.6,0-3.3-0.3-4.8-0.9c-1.3-0.6-2.6-1.4-3.6-2.5c-1-1-1.7-2.3-2.2-3.6c-1-2.8-1-5.8,0-8.6c0.5-1.3,1.2-2.6,2.2-3.6
	c1-1.1,2.1-1.9,3.5-2.5s3-1,4.6-1c1.4,0,2.8,0.2,4.2,0.6c1.1,0.4,2.2,1,3.1,1.7c0.9,0.7,1.6,1.6,2.1,2.5c0.5,1,0.9,2.1,1.1,3.2h-3
	c-0.2-0.8-0.4-1.5-0.8-2.2c-0.4-0.7-0.9-1.3-1.5-1.8s-1.4-0.9-2.2-1.2c-2.1-0.7-4.3-0.5-6.3,0.3c-1,0.5-1.9,1.1-2.6,2
	c-0.7,0.8-1.3,1.8-1.6,2.8c-0.4,1.1-0.6,2.2-0.6,3.3c0,1.2,0.2,2.3,0.6,3.4c0.4,1,1,2,1.7,2.8c0.8,0.8,1.7,1.5,2.8,1.9
	c1.2,0.5,2.5,0.7,3.8,0.7c0.7,0,1.5-0.1,2.2-0.3c0.7-0.2,1.4-0.6,2-1s1.1-0.9,1.6-1.5c0.4-0.6,0.8-1.2,1-1.9L667.3,419.2z"/>
<path class="st2" d="M679.3,406.7v7.1h9.3v2.5h-9.3v7h9.3v2.5h-12.2v-21.7h12.2v2.5h-9.3V406.7z"/>
<path class="st2" d="M628,337.5V318c0-24.7,37.3-22.1,37.3,0.9c0,10.4-9.5,18.7-23.4,18.7H628V337.5z M681,362.3
	c-3.9,0-3.9,3.9-7,3.9c-5.2,0-14.8-17.8-17.8-25.2c10.8-3.5,18.2-12.2,18.2-22.1c0-22.6-33.4-33-49.9-17.8
	c-4.1-3.3-9.1-5.1-14.3-5.2c-12.6,0-12.2,13.9-4.3,13.9c3.9,0,3.9-3.9,6.9-3.9c0.4,0,3,0.4,3,3.9v23.9c-6.1-2.2-12.6,0-12.6,4.8
	c0,2.6,2.1,4.8,4.8,4.8c3.5,0,3.5-2.6,5.6-2.6c1.3,0,2.2,1.7,2.2,3.5v18.2c0,2.2,0,3.9-3,3.9c-2.6,0-2.6-3.9-6.9-3.9
	c-9.1,0-9.1,13.9,4.3,13.9c3.9,0,7.7-1.2,10.9-3.5c2.2,1.7,5.2,3.5,11.7,3.5c10.4,0,10.4-10.4,3.9-10.4c-3.5,0-3.5,3-6.1,3
	s-2.6-2.6-2.6-6.5v-18.6h20c5.2,9.5,13.9,25.2,8.2,25.2c-2.2,0-2.2-3-5.2-3c-7.4,0-7.4,10.4,3,10.4c6.5,0,9.5-1.7,11.7-3.5
	c3.1,2.3,7,3.5,10.8,3.5C689.2,376.2,689.2,362.3,681,362.3L681,362.3z M520.2,362.7c0,0.9-0.4,3.9-2.6,3.9c-3,0-3-4.3-7.4-4.3
	c-9.1,0-9.1,13.5,4.3,13.5c8.2,0,13.5-1.7,16.5-4.3c6,3.3,12.7,5.1,19.5,5.2c9.5,0,18.2-3,24.3-8.2c2.2-1.7,4.8-2.6,6.5-0.9
	s-1.3,5.2,0,7.4s4.3,2.6,6.5,1.3c6.5-4.8,0.9-15.2-7.4-18.7c2.2-8.2-5.2-20.8-13-17.8c-3.5,1.7-4.8,5.2-3,8.7s5.2,2.2,7,4.8
	c2.2,4.4,0.4,7.4-1.3,9.5c-4,4.8-11,7.8-19.7,7.8c-10.4,0-18.2-5.2-18.2-17.4v-16.9h7.8c2.2,0,5.2,0,5.2,2.6s-3,3-3,5.6
	c0,7,10.4,7,10.4-3.5c0.1-2.6-0.7-5.2-2.2-7.4c1.4-2.4,2.2-5.1,2.2-7.8c0-10.9-10.4-10.9-10.4-3.5c0,3.9,3,3.9,3,5.6
	c0,2.6-3.9,2.6-5.2,2.6h-7.8V318c0-12.6,7.8-17.8,18.2-17.8c5.7,0,15.6,1.3,18.7,7.4c0,0,1.3,3-1.3,3c-6.1,0-7,6.5-3.5,8.7
	c4.8,2.6,12.2-2.2,12.2-10c2.6-1.3,7-2.6,9.5-8.2c4.3-8.2-5.6-14.8-8.2-7.4c-0.9,3,1.7,8.7-1.3,7.4c-8.7-3.9-19.5-7.4-26-7.4
	c-6.9,0-13.7,2-19.5,5.7c-3-2.6-10-5.6-16.5-5.6c-13.9,0-13.9,13.9-4.3,13.9c4.8,0,4.8-3.9,7.4-3.9s2.6,2.2,2.6,3.9v25.6
	c-1.5-0.5-3.2-0.8-4.8-0.9c-10,0-10,10.4-3,10.4c3,0,3-2.6,5.6-2.6c1.1-0.1,2.1,0.7,2.2,1.8c0,0.1,0,0.2,0,0.4L520.2,362.7z
	 M483,375.7c13,0,13-13.5,5.7-13.5c-5.2,0-5.2,3.5-8.7,3.5c-5.2,0-20.8-21.7-25.2-28.6c-0.4-0.8-0.4-1.8,0-2.6
	c4.4-7.4,20-30.4,25.2-30.4c3.9,0,3.9,3.5,8.7,3.5c7.8,0,7.8-13.9-5.7-13.9c-4,0-7.8,1.4-10.9,3.9c-3.3-2.7-7.5-4.1-11.7-3.9
	c-10.4,0-10.4,10.9-4.3,10.9c3.9,0,3.9-3,6.5-3c0.9,0,1.7,0.4,1.7,1.3c0.4,3.4-9.4,17.9-15.6,26.8c-1.6,2.3-4.2,3.6-7,3.6h-6
	c-2.7-0.5-4.5-2.9-4.3-5.6v-20c0-1.3,0-6.1,2.6-6.1c2.2,0,3.5,3,6.1,3c6.1,0,6.1-10.9-4.3-10.9c-6.1,0-9.5,2.2-11.3,3.9
	c-3.1-2.4-6.9-3.7-10.9-3.9c-14.8,0-14.8,13.9-4.8,13.9c4.4,0,4.3-3.5,7.4-3.5c1.7,0.1,3,1.5,3,3.1v25.9c-7-1.7-12.6,0-12.6,4.8
	c-0.1,2.5,1.8,4.7,4.3,4.8c0.1,0,0.3,0,0.4,0c3.5,0,3-2.6,5.6-2.6c1.7,0,2.2,1.7,2.2,2.6v19.1c0,1.7,0,3.9-3,3.9
	c-2.6,0-2.6-3.9-7.4-3.9c-8.7,0-8.7,13.9,4.8,13.9c3.9,0,7.7-1.2,10.9-3.5c1.7,1.7,5.2,3.5,11.3,3.5c10.9,0,10.9-10.4,3.5-10.4
	c-3,0-3.5,3-5.6,3s-2.2-3.9-2.2-6.5v-17.3c0-2.8,2.2-5.2,5-5.2c0.1,0,0.1,0,0.2,0h5.5c2.6,0,5,1.2,6.7,3.1
	c7,8.5,20.3,25.9,13.9,25.9c-2.6,0-2.6-2.6-6.5-2.6c-4.8,0-7.4,10,4.3,10c6.1,0,9.5-1.7,11.7-3.5C475.3,374.6,479.2,375.8,483,375.7
	z M339.2,339.7l10-31.3l11.3,31.3H339.2z M390.2,361.9c-4.8,0-4.8,3.9-7.8,3.9c-1.3,0-3-2.6-3.9-5.2l-6.1-16.1
	c-0.4-1.7-0.4-4.3,2.6-4.3c2.6,0,2.6,2.6,5.2,2.6c2.5,0.1,4.7-1.8,4.8-4.3c0-0.1,0-0.3,0-0.4c0-5.2-8.2-7.8-16.1-3l-10.4-28.2
	c-0.9-2.2-0.4-3.9,1.7-3.9c2.6,0,2.6,3.9,7.4,3.9c9.1,0,8.7-13.9-4.8-13.9c-3.9,0-9.5,1.3-12.6,3.9c-2.2-1.7-5.2-3.9-11.7-3.9
	c-9.5,0-10.9,10.4-3.9,10.4c3,0,3.9-3,6.5-3s1.7,3,1.7,3l-10.4,32.1c-6.1-5.2-16.1-3.5-16.1,2.6c0,2.6,2.2,4.8,4.8,4.8
	c3,0,3-2.6,5.6-2.6c3.5,0,3,4.3,2.6,5.6l-5.2,15.6c-0.9,2.6-2.6,4.3-5.6,4.3c-2.6,0-3.9-3.9-7.8-3.9c-9.5,0-10.4,13.9,4.3,13.9
	c3-0.1,6-0.8,8.7-2.2c2.2,1.4,4.8,2.2,7.4,2.2c10,0,10.9-10.4,3-10.4c-1.3,0.1-2.6,0.7-3.5,1.7c-1.3,1.3-2.6,0.4-1.3-3.5l5.6-17.8
	h25.6l5.6,14.7c0.9,2.6,2.2,7.8-1.3,7.8c-2.2,0-2.2-3-5.6-3c-5.6,0-7.8,10.4,3,10.4c6.5,0,9.5-1.7,12.1-3.5c3,2.2,6.7,3.5,10.4,3.5
	C398,375.7,398,361.8,390.2,361.9L390.2,361.9z M759.5,308c8.7,0,8.7-13.9-4.3-13.9c-3.5,0-6.1,1.3-8.7,2.6
	c-2.2-1.3-4.8-2.6-7.4-2.6c-6.5,0-8.2,3.9-8.2,5.6c0,2.6,2.2,5.2,4.8,5.2s2.6-2.6,4.8-2.6s1.3,2.2,0.4,3.9l-15.2,26.5l-14.8-23.4
	c-1.3-2.2-5.2-7.8-0.9-7.8c2.6,0,3,3,5.6,3s4.8-2.1,4.8-4.8c0-6.1-12.6-7.8-20-1.7c-7-6.1-21.7-5.2-21.7,3.5
	c0.1,3.6,2.9,6.4,6.5,6.5c3.5,0,3.5-3.9,7.4-3.9c2.2,0,4.3,2.6,6.1,5.2l15.2,23.4c-4.8,0-10,1.3-10,5.6c0,2.6,2.1,4.8,4.8,4.8
	c3,0,3-2.6,5.7-2.6c3,0,2.6,3,2.6,6.1v16.5c0,2.6-1.7,3.5-3,3.5c-3,0-3-3.5-7.4-3.5c-9.1,0-9.1,13.9,4.8,13.9
	c3.8-0.1,7.5-1.5,10.4-3.9c3,2.2,9.1,3.9,13,3.9c12.6,0,12.6-13.9,4.3-13.9c-3.5,0-3.5,3.5-7.4,3.5c-2.6,0-2.6-2.6-2.6-3.5v-18.2
	c0-1.3,0-4.4,2.2-4.4c3,0,3,2.6,5.6,2.6s4.8-2.1,4.8-4.8c0-5.2-6.1-5.6-8.2-5.6h-1.3l13.5-23.9c0.9-1.3,2.2-4.3,6.5-4.3
	C756,304.5,756,308,759.5,308L759.5,308z M271.5,369.7c-9.5,0-18.2-4.3-18.2-14.8v-19.6h18.2c13.9,0,22.1,7.8,22.1,16.9
	C293.6,362.7,286.2,369.6,271.5,369.7L271.5,369.7z M253.3,329.3c0-20,0-30.4,12.6-30.4c8.6,0,15.6,7,15.6,15.6l0,0
	c0,7.4-5.2,14.3-12.1,14.3L253.3,329.3z M282.4,330.6c5.6-3.9,9.1-9.5,9.1-16.1c0-11.7-11.7-21.7-26-21.7c-7,0-13.9,3.5-19.1,7.4
	c-2.6-2.6-6.5-3.9-10.9-3.9c-12.6,0-12.6,13.9-4.4,13.9c4.4,0,4.4-3.9,7.4-3.9s3,3,3,3.9v23.4c-1.4-0.5-2.9-0.8-4.3-0.9
	c-3,0-8.2,0.4-8.2,5.6c-0.2,2.7,1.9,5,4.6,5.2h0.1c3,0,3-3,5.6-3c2.2,0,2.2,1.7,2.2,1.7v18.2c0,0.9,0,3.9-3,3.9
	c-3.5,0-3.5-3.9-7.5-3.9c-9.6,0-9.1,13.9,4.4,13.9c3.5,0,9.1-2.2,14.3-5.2c6.4,4.3,14,6.5,21.7,6.5c18.2,0,32.6-9.5,32.6-23.4
	C304,342.3,294.9,333.6,282.4,330.6L282.4,330.6z"/>
<path class="st2" d="M583,263.9c13,0,13-13.5,5.6-13.5c-5.2,0-5.2,3.5-8.7,3.5c-5.2,0-20.8-21.7-25.2-28.6c-0.4-0.8-0.4-1.8,0-2.6
	c4.3-7.4,20-30.4,25.2-30.4c3.9,0,3.9,3.5,8.7,3.5c7.8,0,7.8-13.9-5.6-13.9c-4,0-7.8,1.4-10.9,3.9c-3.3-2.7-7.5-4.1-11.7-3.9
	c-10.4,0-10.4,10.9-4.3,10.9c3.9,0,3.9-3,6.5-3c0.9,0,1.7,0.4,1.7,1.3c0.4,3.4-9.4,17.9-15.6,26.8c-1.6,2.3-4.2,3.6-7,3.6h-6
	c-2.7-0.5-4.5-2.9-4.3-5.6v-20c0-1.3,0-6.1,2.6-6.1c2.2,0,3.5,3,6.1,3c6.1,0,6.1-10.9-4.3-10.9c-6.1,0-9.5,2.2-11.3,3.9
	c-3.1-2.4-6.9-3.7-10.8-3.9c-14.8,0-14.8,13.9-4.8,13.9c4.4,0,4.3-3.5,7.4-3.5c1.7,0.1,3,1.5,3,3.1v26c-6.9-1.7-12.6,0-12.6,4.8
	c-0.1,2.5,1.8,4.7,4.3,4.8c0.2,0,0.3,0,0.5,0c3.5,0,3-2.6,5.6-2.6c1.7,0,2.2,1.7,2.2,2.6v19c0,1.7,0,3.9-3,3.9
	c-2.6,0-2.6-3.9-7.4-3.9c-8.7,0-8.7,13.9,4.8,13.9c3.9,0,7.7-1.2,10.8-3.5c1.7,1.7,5.2,3.5,11.3,3.5c10.8,0,10.8-10.4,3.5-10.4
	c-3,0-3.5,3-5.6,3s-2.2-3.9-2.2-6.5v-17.3c-0.1-2.8,2.2-5.2,5-5.2c0.1,0,0.1,0,0.2,0h5.4c2.6,0,5,1.1,6.7,3.1
	c7,8.5,20.3,25.9,13.9,25.9c-2.6,0-2.6-2.6-6.5-2.6c-4.8,0-7.4,10,4.3,10c6.1,0,9.5-1.7,11.7-3.5C575.2,262.8,579.1,264,583,263.9z
	 M621.8,250.9c0,0.9-0.4,3.9-2.6,3.9c-3,0-3-4.4-7.4-4.4c-9.1,0-9.1,13.5,4.3,13.5c8.2,0,13.5-1.7,16.5-4.3c6,3.3,12.7,5.1,19.5,5.2
	c9.6,0,18.2-3,24.3-8.2c2.2-1.7,4.8-2.6,6.5-0.9s-1.3,5.2,0,7.4c1.5,2.1,4.3,2.7,6.5,1.3c6.5-4.8,0.9-15.2-7.4-18.7
	c2.2-8.2-5.2-20.8-13-17.8c-3.5,1.7-4.8,5.2-3,8.7s5.2,2.2,6.9,4.8c2.2,4.3,0.4,7.4-1.3,9.5c-3.9,4.8-10.8,7.8-19.5,7.8
	c-10.4,0-18.2-5.2-18.2-17.4v-16.9h7.8c2.2,0,5.2,0,5.2,2.6s-3,3-3,5.6c0,6.9,10.4,6.9,10.4-3.5c0.1-2.6-0.7-5.2-2.2-7.4
	c1.4-2.4,2.2-5.1,2.2-7.8c0-10.9-10.4-10.9-10.4-3.5c0,3.9,3,3.9,3,5.6c0,2.6-3.9,2.6-5.2,2.6H634V206c0-12.6,7.8-17.8,18.2-17.8
	c5.7,0,15.6,1.3,18.7,7.4c0,0,1.3,3-1.3,3c-6.1,0-7,6.5-3.5,8.7c4.8,2.6,12.2-2.2,12.2-10c2.6-1.3,7-2.6,9.5-8.2
	c4.3-8.2-5.6-14.8-8.2-7.4c-0.9,3,1.7,8.7-1.3,7.4c-8.7-3.9-19.5-7.4-26-7.4c-7,0-13.8,2-19.7,5.7c-3-2.6-10-5.6-16.5-5.6
	c-13.9,0-13.9,13.9-4.3,13.9c4.8,0,4.8-3.9,7.4-3.9s2.6,2.2,2.6,3.9v25.6c-1.5-0.5-3.2-0.8-4.8-0.9c-10,0-10,10.4-3,10.4
	c3,0,3-2.6,5.7-2.6c1.1-0.1,2.1,0.7,2.2,1.8c0,0.1,0,0.2,0,0.4L621.8,250.9z M791.9,179.3c-5.2-1.7-8.2,3.9-6.1,6.9
	c1.3,2.2-0.4,5.2-6.9,1.7c-6.3-3.9-13.5-6-20.9-6.1c-4.3,0-8.7,1.3-12.6,2.6c-4.3-1.3-8.7-2.6-13-2.6c-11.3,0-21.3,7.4-26,7.4
	c-2.6,0-2.6-1.7-1.7-3c1.7-3-0.4-9.1-6.1-6.9c-6.5,2.6-2.6,13,7.4,18.2c1.3,7.8,7.8,13.5,12.6,10c2.6-1.7,3-8.7-3.5-8.7
	c-6.1,0,7.4-10.4,17.4-10.4c6.1,0,6.5,7.4,6.5,7.4v25.6c-1.4-0.5-2.9-0.8-4.3-0.9c-10,0-10,10.4-3.5,10.4c3.9,0,3.9-3,5.7-3
	c2.2,0,2.2,1.7,2.2,3V250c0,1.3,0,3.9-2.6,3.9s-2.6-3.9-7.4-3.9c-9.1,0-9.1,13.9,4.3,13.9c4.3,0,10-1.3,12.6-3.5
	c3.2,2.2,7,3.5,10.9,3.5c2.5,0,5-0.4,7.4-1.3c2.1-1.1,3.4-3.3,3.5-5.6c0-3.9-2.6-7-6.1-7c-3.9,0-3.9,3.9-7.4,3.9
	c-2.6,0-2.6-2.2-2.6-3.5v-19.6c0-1.3,0-3,2.2-3s2.2,3,5.6,3c2.6,0,4.8-2.1,4.8-4.8c0-4.8-4.8-5.6-8.2-5.6c-1.5,0.1-2.9,0.4-4.3,0.9
	v-25.6c0,0.9,0-7.4,6.5-7.4c15.6,0,24.3,10.4,17.4,10.4c-5.6,0-6.5,7-3.5,8.7c5.2,3.9,12.2-3.9,12.2-10
	C793.6,193.6,798.8,182.3,791.9,179.3L791.9,179.3z M435.6,225.3v-19.5c0-24.7,37.3-22.1,37.3,0.9c0,10.4-9.5,18.7-23.4,18.7
	L435.6,225.3L435.6,225.3z M488.6,250c-3.9,0-3.9,3.9-6.9,3.9c-5.2,0-14.8-17.8-17.8-25.2c10.8-3.5,18.2-12.2,18.2-22.1
	c0-22.6-33.4-33-49.9-17.8c-4.1-3.3-9.1-5.1-14.3-5.2c-12.6,0-12.2,13.9-4.3,13.9c3.9,0,3.9-3.9,6.9-3.9c0.4,0,3,0.4,3,3.9v23.9
	c-6.1-2.2-12.6,0-12.6,4.8c0,2.6,2.1,4.8,4.8,4.8c3.5,0,3.5-2.6,5.6-2.6c1.3,0,2.2,1.7,2.2,3.5V250c0,2.2,0,3.9-3,3.9
	c-2.6,0-2.6-3.9-6.9-3.9c-9.1,0-9.1,13.9,4.3,13.9c3.9,0,7.7-1.2,10.9-3.5c2.2,1.7,5.2,3.5,11.7,3.5c10.4,0,10.4-10.4,3.9-10.4
	c-3.5,0-3.5,3-6.1,3s-2.6-2.6-2.6-6.5v-18.6h20c5.2,9.5,13.9,25.2,8.2,25.2c-2.2,0-2.2-3-5.2-3c-7.4,0-7.4,10.4,3,10.4
	c6.5,0,9.5-1.7,11.7-3.5c3.1,2.3,7,3.5,10.9,3.5C496.8,263.9,496.8,250,488.6,250L488.6,250z M339.8,227.9l10-31.3l11.2,31.3H339.8z
	 M392.8,250c-4.8,0-4.8,3.9-7.8,3.9c-1.3,0-3-2.6-3.9-5.2l-6.1-16.1c-0.4-1.7-0.4-4.4,2.6-4.4c2.6,0,2.6,2.6,5.2,2.6
	c2.5,0.1,4.6-1.8,4.8-4.3c0-0.2,0-0.3,0-0.5c0-5.2-8.2-7.8-16.1-3L361,194.9c-0.9-2.2-0.4-3.9,1.7-3.9c2.6,0,2.6,3.9,7.4,3.9
	c9.1,0,8.7-13.9-4.8-13.9c-3.9,0-9.5,1.3-12.6,3.9c-2.2-1.7-5.2-3.9-11.7-3.9c-9.5,0-10.9,10.4-3.9,10.4c3,0,3.9-3,6.5-3
	s1.7,3,1.7,3L335,223.5c-6.1-5.2-16.1-3.5-16.1,2.6c0,2.6,2.1,4.8,4.8,4.8c3,0,3-2.6,5.6-2.6c3.5,0,3,4.3,2.6,5.7l-5.2,15.6
	c-0.9,2.6-2.6,4.3-5.6,4.3c-2.6,0-3.9-3.9-7.8-3.9c-9.5,0-10.4,13.9,4.3,13.9c3-0.1,6-0.8,8.7-2.2c2.2,1.4,4.8,2.2,7.4,2.2
	c10,0,10.9-10.4,3-10.4c-1.3,0.1-2.6,0.7-3.5,1.7c-1.3,1.3-2.6,0.4-1.3-3.5l5.6-17.8h25.6l5.6,14.8c0.9,2.6,2.2,7.8-1.3,7.8
	c-2.2,0-2.2-3-5.6-3c-5.6,0-7.8,10.4,3,10.4c6.5,0,9.5-1.7,12.1-3.5c3,2.2,6.7,3.4,10.4,3.5C400.6,263.9,400.6,250,392.8,250
	L392.8,250z M222,263.9c10.9,0,10.9-10.4,3.5-10.4c-2.6,0-3.5,3-5.6,3c-2.6,0-2.6-2.6-2.6-4.8v-47.3l26,54.7h2.2L271,204v45.6
	c0,2.2,0.4,6.9-2.6,6.9c-2.2,0-3-3-5.6-3c-6.5,0-6.5,10.4,3.5,10.4c6.5,0,9.5-1.7,11.7-3.5c3.2,2.2,7,3.5,10.9,3.5
	c12.1,0,12.1-13.9,4.3-13.9c-3.9,0-4.3,3.9-7.4,3.9c-2.2,0-2.6-2.2-2.6-3.9v-17.8c0-1.7,0-3.9,2.6-3.9s2.6,2.6,5.2,2.6
	c2.5,0.1,4.6-1.8,4.8-4.3c0-0.2,0-0.3,0-0.5c0-3.9-5.2-7.4-12.6-4.8v-27.8c0-1.4,1.1-2.6,2.5-2.6h0.1c3,0,4.3,3.9,7.4,3.9
	c8.7,0,10-13.9-4.3-13.9c-4-0.1-7.9,1.3-10.9,3.9c-2.2-1.7-5.2-3.9-11.7-3.9c-10,0-10.9,10.4-3.5,10.4c2.6,0,3-3,5.6-3
	c1.3,0,2.6,1.3,1.3,5.2l-22.1,48.6l-23-48.6c-0.9-1.7-0.9-5.2,1.3-5.2c0.4,0,0.9,0.4,1.3,0.9c1.3,1.3,2.6,2.2,3.9,2.2
	c6.5,0,8.2-10.4-3-10.4c-4.2-0.2-8.4,1.2-11.7,3.9c-2.9-2.5-6.6-3.9-10.4-3.9c-12.6,0-14.8,13.9-4.3,13.9c2.1-0.1,4.1-1.2,5.2-3
	c0.6-0.6,1.4-0.9,2.2-0.9c2.2,0,2.6,1.7,2.6,3.9v26.5c-3.5-1.7-12.6-1.7-12.6,4.8c0,2.6,2.2,4.8,4.8,4.8c3.5,0,3.5-2.6,5.2-2.6
	c2.6,0,2.6,2.2,2.6,21.7c0,1.7,0,3.9-2.6,3.9c-3,0-3-3.9-7.4-3.9c-8.7,0-8.7,13.9,4.3,13.9c3-0.1,6-0.8,8.7-2.2
	C216.9,263.2,219.4,263.9,222,263.9z"/>
</svg>
