<?xml version="1.0" encoding="utf-8"?>
<!-- Generator: Adobe Illustrator 23.1.1, SVG Export Plug-In . SVG Version: 6.00 Build 0)  -->
<svg version="1.1" id="Layer_1" xmlns="http://www.w3.org/2000/svg" xmlns:xlink="http://www.w3.org/1999/xlink" x="0px" y="0px"
	 viewBox="0 0 648.7 55.6" style="enable-background:new 0 0 648.7 55.6;" xml:space="preserve">
<style type="text/css">
	.st0{fill:#CED3BA;}
	.st1{fill:#BCC1A3;}
	.st2{fill:#00563F;}
</style>
<title>190606_28MP_MB_SW</title>
<path class="st0" d="M6.8,10.1l7.9,7.9c2.2,0.7,4.3,1.5,6.4,2.4c0,0,1.5-2.4,6-2.6l-4-10.7l-6.3-4.7L6.7,4.1L5.3,9.7L6.8,10.1z"/>
<polygon class="st0" points="137.8,1 137.6,1 137.7,1.2 "/>
<path class="st0" d="M76.7,9.8c-1.3-1.5-3-2.8-4.8-3.7c-6.1-2.9-13.3-1.4-17.7,3.7c-1.3,1.6-2.4,3.3-3.1,5.3c-1.4,4-1.4,8.3,0,12.3
	c0.7,1.9,1.7,3.7,3.1,5.2c1.3,1.5,3,2.8,4.8,3.7c1.4,0.7,2.9,1.1,4.5,1.3c-0.2-1-0.3-2.1-0.3-3.2c0-2.1,0.4-4.2,1.1-6.2
	c0.7-1.9,1.7-3.7,3.1-5.3c2.8-3.3,7-5.1,11.3-5c0.6,0,1.3,0,1.9,0.1c-0.2-1-0.4-2-0.8-3C79.1,13.1,78,11.3,76.7,9.8z"/>
<polygon class="st0" points="109.9,0.9 123.9,33.4 127.6,24.6 123.2,14.2 123.2,14.2 123.1,14.1 123.1,14.1 123.1,14.1 110,0.9 
	109.2,0.9 "/>
<path class="st0" d="M23.2,3.4c1.1,1.1,2.1,2.4,2.7,3.9c0.7,1.6,1,3.3,1,5.1h-5.3c0.1-2-0.7-4-2-5.6c-1.4-1.4-3.4-2.2-5.4-2.1
	c-1.9-0.1-3.9,0.5-5.4,1.6c-1.4,1.1-2.1,2.7-2.1,4.5c0,1,0.2,1.9,0.6,2.8c0.4,0.7,1,1.4,1.7,1.9c0.7,0.5,1.6,1,2.4,1.3
	c0.9,0.4,1.9,0.7,2.8,1c1.5,0.5,3.1,1.1,4.7,1.7c0.7,0.3,1.4,0.6,2,0.9c0.3-0.4,0.6-0.7,0.9-1c1.5-1.1,3.3-1.7,5.2-1.6l7.7,7.7
	l3.3,0h2c0-1.7-0.3-3.5-1-5.1c-0.6-1.5-1.5-2.8-2.7-3.9c0-0.1-0.1-0.1-0.2-0.2L23.2,3.4L23.2,3.4C23.3,3.4,23.2,3.4,23.2,3.4z"/>
<path class="st0" d="M229,11.3c-0.4-1.1-1-2.1-1.7-2.9c-0.8-0.8-1.7-1.5-2.7-2c-1.1-0.5-2.3-0.7-3.6-0.7h-9v18.1h9
	c1.2,0,2.4-0.2,3.6-0.7c0.2-0.1,0.4-0.2,0.6-0.3v-3.8h3.6c0.1-0.2,0.2-0.4,0.3-0.6c0.4-1.1,0.6-2.3,0.6-3.5
	C229.6,13.6,229.4,12.4,229,11.3z"/>
<path class="st1" d="M229,11.3c-0.4-1.1-1-2.1-1.7-2.9c-0.8-0.8-1.7-1.5-2.7-2c-1.1-0.5-2.3-0.7-3.6-0.7h-9l13.1,13.2h3.6
	c0.1-0.2,0.2-0.4,0.3-0.6c0.4-1.1,0.6-2.3,0.6-3.5C229.6,13.6,229.4,12.4,229,11.3z"/>
<path class="st1" d="M14.8,23.4c-1.8-0.6-3.5-1.2-5.2-1.8c-1.5-0.6-3-1.3-4.3-2.3C5.2,19.2,5,19,4.8,18.8l12.4,12.5l0,0
	c0.4,0.4,0.9,0.9,1.4,1.2c0.9,0.7,2,1.3,3,1.8c0.6-1.1,0.9-2.3,0.9-3.5c0-1.1-0.2-2.1-0.7-3.1c-0.5-0.8-1.1-1.5-1.8-2.1
	c-0.8-0.6-1.6-1-2.5-1.3C16.6,24,15.7,23.7,14.8,23.4z"/>
<path class="st0" d="M37.3,35.6l-11.9-12c0.5,0.5,0.9,1.1,1.2,1.6c0.9,1.5,1.3,3.3,1.2,5c0,1.8-0.3,3.6-1.1,5.3
	c-0.7,1.5-1.7,2.8-2.9,3.8c-1.3,1.1-2.8,1.9-4.3,2.3c-1.7,0.5-3.6,0.8-5.4,0.8c-1.9,0-3.7-0.3-5.5-1c-1.2-0.5-2.4-1.1-3.5-1.9
	l11,10.9c0.4,0.5,0.8,1,1.2,1.4c1.3,1.2,2.8,2.1,4.4,2.7c1.8,0.7,3.6,1,5.5,1c1.8,0,3.6-0.2,5.4-0.8c1.6-0.5,3-1.3,4.3-2.3
	c1.2-1.1,2.2-2.4,2.9-3.9c0.7-1.7,1.1-3.4,1.1-5.2c0.1-1.7-0.4-3.5-1.2-5C39.1,37.3,38.3,36.4,37.3,35.6z"/>
<path class="st0" d="M5.3,28.7c-0.3,4.7,3.3,8.7,8,9c0.3,0,0.7,0,1,0L5.3,28.7z"/>
<polygon class="st0" points="540.5,22.9 535.4,14.1 522.3,0.9 540.5,32.3 "/>
<path class="st0" d="M622.1,37.7l-9.1-9.1c-0.1,2.5,0.8,4.9,2.5,6.6C617.3,36.9,619.7,37.8,622.1,37.7z"/>
<polygon class="st0" points="462.7,18.2 461.4,14.1 448.3,0.9 458.1,32.4 "/>
<polygon class="st1" points="258.4,16.2 258.4,5.7 248,5.7 "/>
<path class="st0" d="M633.6,7.3c0.7,1.6,1,3.3,1,5.1h-5.3c0.1-2-0.6-4-2-5.6c-1.4-1.4-3.4-2.2-5.4-2.1c-1.9-0.1-3.9,0.5-5.4,1.6
	c-1.3,1.1-2.1,2.7-2,4.5c0,1,0.2,1.9,0.6,2.8c0.4,0.7,1,1.4,1.7,1.9c0.7,0.5,1.6,1,2.4,1.3c0.9,0.4,1.9,0.7,2.8,1
	c1.5,0.5,3.1,1.1,4.7,1.7c0.7,0.3,1.4,0.6,2.1,0.9c0.3-0.3,0.6-0.6,0.9-0.9c1.5-1.1,3.3-1.7,5.1-1.6l7.7,7.6h5.3
	c0-1.7-0.3-3.5-1-5.1c-0.6-1.5-1.5-2.8-2.7-4c-0.1-0.1-0.3-0.2-0.4-0.3L631.6,4.2C632.4,5.1,633.1,6.2,633.6,7.3z"/>
<path class="st0" d="M94,19.7c-0.4-0.5-0.9-0.9-1.3-1.3L80,5.7l0,0c0.3,0.3,0.5,0.5,0.8,0.8c1.8,2,3.2,4.3,4.2,6.8
	c1.9,5.1,1.9,10.8,0,15.9c-0.9,2.5-2.3,4.8-4.2,6.8c-1.8,2-4.1,3.6-6.6,4.7c-5.6,2.4-11.9,2.4-17.5,0c-2.2-1-4.2-2.4-5.9-4.1h-0.1
	l12.6,12.5c1.9,2,4.1,3.6,6.6,4.7c5.6,2.4,11.9,2.4,17.5,0c2.5-1.1,4.7-2.7,6.6-4.7c1.8-2,3.2-4.2,4.1-6.7c1.9-5.1,1.9-10.8,0-15.9
	C97.2,24,95.8,21.7,94,19.7z"/>
<path class="st0" d="M318.3,9.8c-1.3-1.5-3-2.8-4.8-3.7c-6.1-2.9-13.3-1.4-17.7,3.7c-1.3,1.6-2.4,3.3-3.1,5.3c-1.4,4-1.4,8.3,0,12.3
	c0.7,1.9,1.7,3.7,3.1,5.2c1.3,1.5,3,2.8,4.8,3.7c1.4,0.7,2.9,1.1,4.5,1.3c-0.2-1-0.3-2.1-0.3-3.2c0-2.1,0.4-4.2,1.1-6.2
	c0.7-1.9,1.7-3.7,3.1-5.3c1.3-1.5,3-2.8,4.8-3.7c2-0.9,4.2-1.4,6.4-1.4c0.6,0,1.3,0,1.9,0.1c-0.2-1-0.4-2-0.8-3
	C320.7,13.1,319.7,11.3,318.3,9.8z"/>
<polygon class="st0" points="370.6,22.9 365.5,14.1 352.3,0.9 370.6,32.3 "/>
<polygon class="st0" points="438.8,18.4 437.4,14.1 424.2,0.9 434.4,32.4 "/>
<path class="st0" d="M624.4,30.7c0.5,0.7,1.2,1.3,1.9,1.8c0.9,0.7,2,1.3,3,1.8c0.6-1.1,0.9-2.3,0.9-3.5c0-1.1-0.2-2.1-0.7-3.1
	c-0.5-0.8-1.1-1.5-1.8-2.1c-0.8-0.6-1.6-1-2.5-1.3c-0.9-0.3-1.8-0.6-2.7-0.9c-1.8-0.6-3.5-1.2-5.2-1.8c-1.5-0.6-2.9-1.3-4.2-2.3
	c-0.6-0.5-1.2-1-1.7-1.7h-0.1L624.4,30.7z"/>
<polygon class="st0" points="446.2,10.1 436.4,41.5 432.5,41.5 445.7,54.7 449.6,54.7 454.9,37.7 "/>
<polygon class="st0" points="545.8,41.5 540,41.5 553.1,54.7 559,54.7 559,14.1 545.8,0.9 "/>
<polygon class="st0" points="495.8,41.5 490.3,41.5 503.5,54.7 508.9,54.7 508.9,14.1 495.8,0.9 "/>
<polygon class="st0" points="460,41.5 456.1,41.5 469.3,54.7 473.2,54.7 487.1,14.1 473.9,0.9 "/>
<polygon class="st0" points="521.7,10.2 521.7,41.5 516.4,41.5 529.6,54.7 534.9,54.7 534.9,32.8 "/>
<polygon class="st0" points="156.1,14.3 156.1,14.2 156.1,14.2 156.1,14.1 156,14.1 142.9,1 142.9,1 142.9,41.5 139.2,41.5 
	138.8,41.5 137.6,41.5 137.6,13.2 125.9,41.5 125.9,41.5 123.3,41.5 121.8,41.5 110.1,13.2 110.1,41.5 104.9,41.5 104.8,41.5 
	118,54.7 118,54.7 118,54.7 118.1,54.8 123.3,54.8 123.3,54.7 123.3,54.7 123.3,43 135,54.8 139.1,54.8 139.1,54.7 139.1,54.7 
	142.5,46.4 150.7,54.6 150.7,54.7 150.8,54.7 150.9,54.8 156.1,54.8 156,54.7 156.1,54.7 "/>
<path class="st0" d="M610.8,37.8L610.8,37.8l0.5,0.5C611.2,38.1,611,38,610.8,37.8z"/>
<polygon class="st0" points="589.3,5.7 571.7,5.7 571.7,19 589.3,19 589.3,23.7 571.7,23.7 571.7,36.8 589.3,36.8 589.3,41.5 
	566.5,41.5 579.6,54.7 602.4,54.7 602.4,50 589.4,36.9 602.4,36.9 602.4,32.1 589.3,19 602.4,19 602.4,14.1 589.3,0.9 "/>
<path class="st0" d="M647.4,38.4c-0.6-1-1.4-2-2.3-2.8l-11.5-11.6l0,0.1c0.3,0.3,0.5,0.7,0.8,1.1c0.9,1.5,1.3,3.3,1.2,5
	c0,1.8-0.3,3.6-1.1,5.3c-0.7,1.5-1.7,2.8-2.9,3.8c-1.3,1.1-2.8,1.8-4.4,2.3c-1.7,0.5-3.6,0.8-5.4,0.8c-1.9,0-3.7-0.3-5.5-1
	c-1.6-0.6-3-1.5-4.3-2.6l12,12l0,0c0.3,0.3,0.6,0.7,0.9,1c1.3,1.2,2.8,2.1,4.4,2.7c1.8,0.7,3.6,1,5.5,1c1.8,0,3.6-0.2,5.4-0.8
	c1.6-0.4,3.2-1.2,4.5-2.3c1.2-1.1,2.2-2.4,2.9-3.9c0.7-1.6,1.1-3.4,1.1-5.2C648.7,41.7,648.3,39.9,647.4,38.4z"/>
<polygon class="st0" points="186.3,5.7 168.8,5.7 168.8,19 186.3,19 186.3,23.7 168.8,23.7 168.8,36.8 186.3,36.8 186.3,36.9 
	199.5,36.9 199.5,36.9 199.5,32.1 199.5,32.1 186.6,19.2 199.5,19.2 199.5,18.9 199.5,14.1 186.3,0.9 "/>
<path class="st0" d="M245.6,35.9c0.8-1.1,1.4-2.4,1.8-3.7c0.4-1.4,0.6-2.8,0.6-4.3c0-1.8-0.3-3.6-1-5.3c-0.6-1.6-1.6-3.1-2.8-4.4
	c-0.1-0.1-0.1-0.1-0.2-0.2V18L230.9,4.8v0.1l0.2,0.2c1.2,1.3,2.2,2.8,2.8,4.4c0.7,1.7,1,3.5,1,5.3c0,1.4-0.2,2.9-0.6,4.3
	c-0.4,1.3-1,2.6-1.8,3.7c-0.8,1.1-1.8,2.1-2.8,3c-1.1,0.9-2.4,1.6-3.7,2l8.5,13.8h-6l-8.1-12.9H212v12.9h-5.3l13.1,13.2h5.4v-13h3.4
	l13,13h6.1l0-0.1l0,0l-8.4-13.8c1.4-0.4,2.6-1.1,3.7-2C243.9,38,244.9,37,245.6,35.9z"/>
<polygon class="st0" points="389.1,14.1 389,14.1 375.9,1 375.9,41.5 370,41.5 383.2,54.7 383.2,54.7 383.2,54.7 383.3,54.8 
	388.5,54.8 388.5,54.7 389.1,54.7 389.1,54.6 389.1,54.6 389.1,23.9 "/>
<polygon class="st0" points="163.5,41.4 163.5,41.4 163.5,41.5 "/>
<polygon class="st0" points="186.3,36.9 186.3,41.5 163.6,41.5 176.7,54.8 199.5,54.8 199.5,54.7 199.5,50.1 199.5,50 199.4,50 "/>
<path class="st0" d="M287.3,14L274.3,1v4.7h-10.6v35.8h-5.3l13.2,13.2h5.3V18.9h9.4C286.4,17.3,286.8,15.6,287.3,14z"/>
<polygon class="st1" points="228.4,41.5 241.5,54.8 247.6,54.7 234.4,41.5 229.8,39.6 "/>
<path class="st1" d="M21.9,5.1l-7.1-2.8L8.9,3.6l-3.2,3l12.6,12.6c1,0.4,2,0.8,2.8,1.2c0,0,1.7-2.5,6-2.5L21.9,5.1z"/>
<polygon class="st0" points="351.7,10.2 351.7,41.5 346.5,41.5 359.6,54.7 364.9,54.7 364.9,32.8 "/>
<path class="st0" d="M335.6,19.7c-0.4-0.4-0.8-0.8-1.2-1.2L321.6,5.7l0,0c0.3,0.3,0.5,0.5,0.8,0.8c1.8,2,3.2,4.3,4.1,6.8
	c1.9,5.1,1.9,10.8,0,15.9c-0.9,2.5-2.3,4.8-4.1,6.8c-1.9,2-4.1,3.6-6.6,4.7c-5.6,2.4-11.9,2.4-17.5,0c-2.2-1-4.2-2.4-5.9-4.1h-0.1
	L304.9,49h0c1.8,2,4.1,3.6,6.6,4.7c5.6,2.4,11.9,2.4,17.5,0c2.5-1.1,4.7-2.7,6.6-4.7c1.8-2,3.2-4.3,4.1-6.8c1.9-5.1,1.9-10.8,0-15.9
	C338.8,23.9,337.4,21.6,335.6,19.7z"/>
<polygon class="st1" points="186.3,23.7 199.5,36.9 186.3,36.9 186.3,36.8 183,36.8 168.8,23.7 "/>
<polygon class="st1" points="163.5,41.5 176.7,54.8 199.5,54.8 186.3,41.5 "/>
<polygon class="st1" points="186.3,5.7 168.9,5.7 182.1,19 186.3,19 186.6,19.2 199.5,19.2 "/>
<polygon class="st1" points="588.7,23.7 601.9,36.9 588.7,36.9 588.7,36.8 585.4,36.8 571.2,23.7 "/>
<polygon class="st1" points="566.3,41.5 579.5,54.8 602.3,54.8 589.1,41.5 "/>
<polygon class="st1" points="588.7,5.7 571.2,5.7 584.5,19 588.7,19 589,19.2 601.9,19.2 "/>
<polygon class="st0" points="21.6,12.4 34.8,25.7 40,25.6 26.9,12.4 "/>
<path class="st1" d="M26.7,35.5c-0.7,1.5-1.7,2.8-2.9,3.8c-1.3,1.1-2.8,1.9-4.3,2.3c-1.7,0.5-3.6,0.8-5.4,0.8c-1.9,0-3.7-0.3-5.5-1
	c-1.2-0.5-2.4-1.1-3.5-1.9l11,10.9c0.4,0.5,0.8,1,1.2,1.4c1.3,1.2,2.8,2.1,4.4,2.7c1.8,0.7,3.6,1,5.5,1c1.8,0,3.6-0.2,5.4-0.8
	c1.6-0.5,3-1.3,4.3-2.3c1.2-1.1,2.2-2.4,2.9-3.9L26.7,35.5z"/>
<path class="st1" d="M622.4,23.4c-1.8-0.6-3.5-1.2-5.2-1.8c-1.5-0.6-3-1.3-4.3-2.3c-0.2-0.2-0.4-0.3-0.6-0.5l12.4,12.5l0,0
	c0.4,0.4,0.9,0.9,1.3,1.2c0.9,0.7,2,1.3,3,1.8c0.6-1.1,0.9-2.3,0.9-3.5c0-1.1-0.2-2.1-0.7-3.1c-0.5-0.8-1.1-1.5-1.8-2.1
	c-0.8-0.6-1.6-1-2.5-1.3C624.2,24,623.3,23.7,622.4,23.4z"/>
<path class="st1" d="M629.4,5.1l-7.1-2.8l-5.8,1.3l-3.2,3l12.6,12.6c1,0.4,2,0.8,2.8,1.2c0,0,1.7-2.5,6-2.5L629.4,5.1z"/>
<polygon class="st1" points="629.2,12.4 642.4,25.7 647.6,25.6 634.4,12.4 "/>
<path class="st1" d="M634.3,35.5c-0.7,1.5-1.7,2.8-2.9,3.8c-1.3,1.1-2.8,1.9-4.3,2.3c-1.7,0.5-3.6,0.8-5.4,0.8c-1.9,0-3.8-0.3-5.5-1
	c-1.2-0.5-2.4-1.1-3.5-1.9l11,10.9c0.4,0.5,0.8,1,1.2,1.4c1.3,1.2,2.8,2.1,4.4,2.7c1.8,0.7,3.6,1,5.5,1c1.8,0,3.6-0.2,5.4-0.8
	c1.6-0.5,3.1-1.3,4.3-2.3c1.2-1.1,2.2-2.4,2.9-3.9L634.3,35.5z"/>
<path class="st1" d="M81.4,35.5h-0.2c-0.1,0.2-0.3,0.3-0.4,0.5c-1.8,2-4.1,3.6-6.6,4.7c-5.6,2.4-11.9,2.4-17.5,0
	c-2.2-1-4.2-2.4-5.9-4.1h-0.1l12.6,12.5c1.9,2,4.1,3.6,6.6,4.7c5.6,2.4,11.9,2.4,17.5,0c2.5-1.1,4.7-2.7,6.6-4.7l0.5-0.6L81.4,35.5z
	"/>
<path class="st1" d="M72.2,19.3c2-0.9,4.2-1.4,6.4-1.4c0.6,0,1.3,0,1.9,0.1c-0.2-1-0.4-2-0.8-3c-0.7-1.9-1.7-3.7-3-5.3
	c-1.3-1.5-3-2.8-4.8-3.7c-6.1-2.9-13.3-1.4-17.7,3.7c-1.4,1.5-2.4,3.3-3.1,5.3c0,0.1,0,0.2-0.1,0.3l13.2,13.2c0-0.1,0.1-0.2,0.1-0.3
	c0.7-1.9,1.7-3.7,3.1-5.3C68.7,21.4,70.3,20.2,72.2,19.3z"/>
<path class="st1" d="M323.1,35.5H323c-0.1,0.2-0.3,0.3-0.4,0.5c-1.9,2-4.1,3.6-6.6,4.7c-5.6,2.4-11.9,2.4-17.5,0
	c-2.2-1-4.2-2.4-5.9-4.1h-0.1l12.7,12.5c1.8,2,4.1,3.6,6.6,4.7c5.6,2.4,11.9,2.4,17.5,0c2.5-1.1,4.7-2.7,6.6-4.7
	c0.2-0.2,0.3-0.4,0.5-0.6L323.1,35.5z"/>
<path class="st1" d="M314,19.3c2-0.9,4.2-1.4,6.4-1.4c0.6,0,1.3,0,1.9,0.1c-0.2-1-0.5-2-0.8-3c-0.7-1.9-1.7-3.7-3-5.3
	c-1.3-1.5-3-2.8-4.9-3.7c-4.1-1.8-8.8-1.8-12.8,0C299,7,297.3,8.2,296,9.8c-1.3,1.6-2.4,3.3-3.1,5.3c0,0.1,0,0.2-0.1,0.3L306,28.5
	c0-0.1,0.1-0.2,0.1-0.3c0.7-1.9,1.7-3.7,3.1-5.3C310.5,21.4,312.1,20.2,314,19.3z"/>
<polygon class="st1" points="104.8,41.5 118.1,54.8 123.3,54.8 110.1,41.5 "/>
<polygon class="st1" points="135,54.8 121.8,41.5 125.9,41.5 139.1,54.7 "/>
<polygon class="st1" points="150.7,54.6 137.6,41.5 142.9,41.5 156,54.7 "/>
<polygon class="st1" points="137.6,21.5 137.6,13.2 135.1,19.1 "/>
<polygon class="st1" points="110.1,20.6 115.3,25.8 110.1,13.2 "/>
<polygon class="st1" points="212,28.6 225.2,41.8 228.5,41.8 228.4,41.5 220.3,28.6 "/>
<polygon class="st1" points="206.7,41.5 219.8,54.7 225.2,54.7 212,41.5 "/>
<polygon class="st1" points="263.7,5.7 276.9,18.9 288.6,19 274.3,5.7 "/>
<polygon class="st0" points="443.7,17.5 454.2,28 446.3,10.2 "/>
<path class="st0" d="M232.9,21.9l13.2,13.2c0,0-2.7,4.7-7.3,5.7l-13-13.1C225.9,27.7,230.8,25.5,232.9,21.9z"/>
<path class="st2" d="M5.3,28.6c-0.1,2.5,0.8,4.9,2.5,6.6c1.8,1.7,4.2,2.6,6.7,2.5c2.1,0.1,4.1-0.6,5.8-1.9c2.3-2.1,2.9-5.4,1.6-8.1
	c-0.5-0.8-1.1-1.5-1.8-2.1c-0.8-0.6-1.6-1-2.5-1.3c-0.9-0.3-1.8-0.6-2.7-0.9c-1.8-0.6-3.5-1.2-5.2-1.8c-1.5-0.6-3-1.3-4.3-2.3
	c-1.2-0.9-2.2-2.1-2.9-3.4c-0.7-1.6-1.1-3.3-1-5.1c0-1.5,0.3-3,1-4.4C3.1,5.1,4,4,5.1,3c1.2-1,2.5-1.8,4-2.2c1.6-0.5,3.3-0.8,5-0.8
	c1.7,0,3.5,0.3,5.1,0.9c1.5,0.6,2.8,1.4,4,2.5c1.1,1.1,2.1,2.4,2.7,3.9c0.7,1.6,1,3.3,1,5.1h-5.3c0.1-2-0.7-4-2-5.6
	c-1.4-1.4-3.4-2.2-5.4-2.1c-1.9-0.1-3.9,0.5-5.4,1.6c-1.4,1.1-2.1,2.7-2.1,4.5c0,1,0.2,1.9,0.6,2.8c0.4,0.7,1,1.4,1.7,1.9
	c0.7,0.5,1.6,1,2.4,1.3c0.9,0.4,1.9,0.7,2.8,1c1.5,0.5,3.1,1.1,4.7,1.7c1.6,0.6,3,1.4,4.4,2.3c1.3,0.9,2.4,2,3.2,3.4
	c0.9,1.5,1.3,3.3,1.2,5c0,1.8-0.4,3.6-1.1,5.2c-0.7,1.5-1.7,2.8-2.9,3.8c-1.3,1.1-2.8,1.9-4.3,2.3c-1.7,0.5-3.6,0.8-5.4,0.8
	c-1.9,0-3.7-0.3-5.5-1c-1.7-0.6-3.2-1.5-4.5-2.7c-1.3-1.2-2.3-2.7-3-4.3C0.3,32.6,0,30.6,0,28.6H5.3z"/>
<path class="st2" d="M65.5,42.5c-3,0-6-0.6-8.8-1.8C54.2,39.6,52,38,50.1,36c-1.8-2-3.2-4.3-4.2-6.8C44,24.1,44,18.4,46,13.3
	c0.9-2.5,2.3-4.8,4.2-6.8c1.8-2,4.1-3.6,6.6-4.7c5.6-2.4,11.9-2.4,17.5,0c2.5,1.1,4.7,2.7,6.6,4.7c1.8,2,3.2,4.3,4.2,6.8
	c1.9,5.1,1.9,10.8,0,15.9C84,31.7,82.6,34,80.8,36c-1.8,2-4.1,3.6-6.6,4.7C71.5,41.9,68.5,42.5,65.5,42.5z M65.5,37.7
	c2.2,0,4.4-0.4,6.4-1.4c1.9-0.9,3.5-2.1,4.8-3.7c1.3-1.5,2.3-3.3,3-5.2c1.4-4,1.4-8.3,0-12.3c-0.7-1.9-1.7-3.7-3-5.3
	c-1.3-1.5-3-2.8-4.8-3.7c-6.1-2.9-13.3-1.4-17.7,3.7c-1.3,1.6-2.4,3.3-3.1,5.3c-1.4,4-1.4,8.3,0,12.3c0.7,1.9,1.7,3.7,3.1,5.2
	c1.3,1.5,3,2.8,4.8,3.7C61,37.3,63.2,37.7,65.5,37.7z"/>
<path class="st2" d="M142.9,41.5h-5.3V13.2l-11.7,28.3h-4.1l-11.7-28.3v28.3h-5.3V0.9l5.1,0.1l13.9,32.5l13.9-32.5h5.1V41.5z"/>
<path class="st2" d="M168.8,5.7V19h17.5v4.7h-17.5v13h17.5v4.8h-22.8V0.9h22.8v4.8H168.8z"/>
<path class="st2" d="M206.7,0.9H221c2,0,3.9,0.3,5.7,1.1c1.6,0.7,3.1,1.7,4.4,3c1.2,1.3,2.2,2.8,2.8,4.4c0.7,1.7,1,3.5,1,5.3
	c0,1.4-0.2,2.9-0.6,4.3c-0.4,1.3-1,2.6-1.8,3.7c-0.8,1.1-1.8,2.1-2.8,3c-1.1,0.9-2.4,1.6-3.7,2l8.5,13.8h-6l-8.1-12.9H212v12.9h-5.3
	L206.7,0.9z M221,23.8c2.4,0,4.7-0.9,6.3-2.7c0.8-0.8,1.4-1.8,1.7-2.9c0.4-1.1,0.6-2.3,0.6-3.5c0-1.2-0.2-2.3-0.6-3.5
	c-0.4-1.1-1-2.1-1.7-2.9c-0.8-0.8-1.7-1.5-2.7-2c-1.1-0.5-2.3-0.7-3.6-0.7h-9v18.1L221,23.8z"/>
<path class="st2" d="M258.4,5.7h-10.5V0.9h26.3v4.8h-10.6v35.8h-5.3V5.7z"/>
<path class="st2" d="M307.1,42.5c-3,0-6-0.6-8.8-1.8c-2.5-1.1-4.7-2.7-6.6-4.7c-1.8-2-3.2-4.3-4.1-6.8c-1.9-5.1-1.9-10.8,0-15.9
	c0.9-2.5,2.3-4.8,4.1-6.8c1.8-2,4.1-3.6,6.6-4.7c5.6-2.4,11.9-2.4,17.5,0c2.5,1.1,4.7,2.7,6.6,4.7c1.8,2,3.2,4.3,4.1,6.8
	c1.9,5.1,1.9,10.8,0,15.9c-0.9,2.5-2.3,4.8-4.1,6.8c-1.9,2-4.1,3.6-6.6,4.7C313.1,41.9,310.1,42.5,307.1,42.5z M307.1,37.7
	c2.2,0,4.4-0.4,6.4-1.4c1.8-0.9,3.5-2.1,4.8-3.7c1.3-1.5,2.3-3.3,3-5.2c1.4-4,1.4-8.3,0-12.3c-0.7-1.9-1.7-3.7-3-5.3
	c-1.3-1.5-3-2.8-4.8-3.7c-6.1-2.9-13.3-1.4-17.7,3.7c-1.3,1.6-2.4,3.3-3.1,5.3c-1.4,4-1.4,8.3,0,12.3c0.7,1.9,1.7,3.7,3.1,5.2
	c1.3,1.5,3,2.8,4.8,3.7C302.7,37.3,304.9,37.7,307.1,37.7z"/>
<path class="st2" d="M370.6,32.3V0.9h5.3v40.6H370l-18.3-31.4v31.4h-5.3V0.9h5.9L370.6,32.3z"/>
<path class="st2" d="M446.2,10.1l-9.8,31.4h-3.9L418.6,0.9h5.6l10.2,31.4l9.9-31.4h4l9.8,31.4l10.2-31.4h5.6L460,41.5h-3.9
	L446.2,10.1z"/>
<path class="st2" d="M490.3,0.9h5.5v40.6h-5.5V0.9z"/>
<path class="st2" d="M540.5,32.3V0.9h5.3v40.6H540l-18.3-31.4v31.4h-5.3V0.9h5.8L540.5,32.3z"/>
<path class="st2" d="M571.7,5.7V19h17.5v4.7h-17.5v13h17.5v4.8h-22.8V0.9h22.8v4.8H571.7z"/>
<path class="st2" d="M613,28.6c-0.1,2.5,0.8,4.9,2.5,6.6c1.8,1.7,4.2,2.6,6.6,2.5c2.1,0.1,4.1-0.6,5.8-1.9c2.3-2.1,2.9-5.4,1.6-8.1
	c-0.5-0.8-1.1-1.5-1.8-2.1c-0.8-0.6-1.6-1-2.5-1.3c-0.9-0.3-1.8-0.6-2.7-0.9c-1.8-0.6-3.5-1.2-5.2-1.8c-1.5-0.6-2.9-1.3-4.2-2.3
	c-1.2-0.9-2.2-2.1-2.9-3.4c-0.7-1.6-1.1-3.3-1-5.1c0-1.5,0.3-3,1-4.4c0.6-1.3,1.5-2.5,2.6-3.4c1.2-1,2.5-1.8,4-2.2
	c1.6-0.5,3.3-0.8,5-0.8c1.7,0,3.5,0.3,5.1,0.9c3,1.1,5.4,3.5,6.7,6.4c0.7,1.6,1,3.3,1,5.1h-5.3c0.1-2-0.6-4-2-5.6
	c-1.4-1.4-3.4-2.2-5.4-2.1c-1.9-0.1-3.9,0.5-5.4,1.6c-1.3,1.1-2.1,2.7-2,4.5c0,1,0.2,1.9,0.6,2.8c0.4,0.7,1,1.4,1.7,1.9
	c0.7,0.5,1.6,1,2.4,1.3c0.9,0.4,1.9,0.7,2.8,1c1.5,0.5,3.1,1.1,4.7,1.7c1.5,0.6,2.9,1.3,4.2,2.3c1.3,0.9,2.4,2,3.2,3.4
	c0.9,1.5,1.3,3.3,1.2,5c0,1.8-0.4,3.6-1.1,5.3c-0.7,1.5-1.7,2.8-2.9,3.8c-1.3,1.1-2.8,1.8-4.4,2.3c-1.7,0.5-3.6,0.8-5.4,0.8
	c-1.9,0-3.7-0.3-5.5-1c-1.6-0.6-3.2-1.5-4.4-2.7c-1.3-1.2-2.3-2.7-3-4.3c-0.8-1.8-1.1-3.8-1.1-5.8L613,28.6z"/>
<polygon class="st1" points="258.4,41.5 271.6,54.7 276.9,54.7 263.7,41.5 "/>
<polygon class="st1" points="346.5,41.5 359.6,54.7 364.9,54.7 351.7,41.5 "/>
<polygon class="st1" points="370,41.5 383.2,54.7 389.1,54.7 375.9,41.5 "/>
<polygon class="st1" points="351.7,17.5 362.2,28 351.7,10.2 "/>
<polygon class="st1" points="516.5,41.5 529.7,54.7 535,54.7 521.8,41.5 "/>
<polygon class="st1" points="540.1,41.5 553.2,54.7 559.1,54.7 545.9,41.5 "/>
<polygon class="st0" points="521.8,17.5 532.2,28 521.8,10.2 "/>
<polygon class="st1" points="432.5,41.5 445.7,54.7 449.6,54.7 436.4,41.5 "/>
<polygon class="st1" points="456,41.5 469.2,54.7 473.2,54.7 460,41.5 "/>
<polygon class="st1" points="490.3,41.5 503.5,54.7 509,54.7 495.8,41.5 "/>
</svg>
