<?xml version="1.0" encoding="utf-8"?>
<!-- Generator: Adobe Illustrator 23.1.1, SVG Export Plug-In . SVG Version: 6.00 Build 0)  -->
<svg version="1.1" id="Layer_1" xmlns="http://www.w3.org/2000/svg" xmlns:xlink="http://www.w3.org/1999/xlink" x="0px" y="0px"
	 viewBox="0 0 1688.9 538.7" style="enable-background:new 0 0 1688.9 538.7;" xml:space="preserve">
<style type="text/css">
	.st0{fill:#CED3BA;}
	.st1{fill:#BCC1A3;}
	.st2{fill:#00563F;}
</style>
<title>SOMERTON_WINES_2</title>
<path class="st0" d="M29.5,43.8l34.3,34.3c0,0,18.3,5.7,27.7,10.6c0,0,6.7-10.4,26.1-11.1l-17.4-46.4L72.9,10.7L29,17.9l-5.9,24.3
	L29.5,43.8z"/>
<polygon class="st0" points="597.9,4.1 597.3,4.1 597.4,5.4 "/>
<path class="st0" d="M332.9,42.4c-5.8-6.7-13-12.1-21-15.9c-26.3-12.5-57.6-6-76.8,15.9c-5.8,6.7-10.4,14.5-13.3,22.9
	c-3.1,8.6-4.7,17.7-4.7,26.8c0,9.1,1.6,18.1,4.7,26.7c3,8.4,7.5,16.1,13.3,22.8c5.9,6.7,13,12.1,21,16c6.1,2.9,12.7,4.8,19.4,5.5
	c-0.8-4.6-1.3-9.2-1.3-13.8c0-9.1,1.6-18.2,4.7-26.8c3-8.4,7.5-16.2,13.3-22.9c5.8-6.7,13-12.1,21-15.9c8.8-4.1,18.3-6.1,28-5.9
	c2.8,0,5.6,0.2,8.3,0.5c-0.8-4.4-1.9-8.8-3.5-13C343.1,56.9,338.6,49.2,332.9,42.4z"/>
<polygon class="st0" points="477.1,4 537.5,145 553.9,106.9 534.6,61.8 534.5,61.4 534.3,61.3 534.3,61.2 534.3,61.2 477.3,4 
	473.9,4 "/>
<path class="st0" d="M100.7,14.9c5,4.8,8.9,10.6,11.6,17c2.9,7,4.4,14.5,4.3,22H93.7c-0.2-10.1-3.1-18.1-8.7-24.1s-13.4-9-23.3-9.1
	c-9.7,0-17.6,2.3-23.5,7.1c-6,4.7-8.9,11.2-8.9,19.4c-0.2,4.2,0.8,8.4,2.8,12.2c1.8,3.2,4.3,6.1,7.3,8.3c3.2,2.4,6.7,4.3,10.4,5.8
	c4,1.6,8.1,3,12.2,4.2c6.7,2.2,13.5,4.6,20.5,7.3c3,1.2,6,2.5,8.9,4c1.2-1.5,2.5-2.8,4-4c5.7-4.5,13.2-6.8,22.4-7l33.4,33.5
	l14.1-0.3h8.6c0.1-7.5-1.4-15-4.3-22c-2.7-6.4-6.6-12.2-11.6-17c-0.2-0.2-0.5-0.4-0.8-0.6l-56.5-56.7h-0.1L100.7,14.9z"/>
<path class="st0" d="M993.8,49c-1.7-4.6-4.2-8.9-7.6-12.6c-3.3-3.6-7.3-6.6-11.8-8.6c-4.9-2.2-10.2-3.2-15.5-3.1h-39v78.5h39
	c5.3,0.1,10.6-1,15.5-3.1c0.9-0.4,1.8-0.9,2.7-1.4V81.9h15.6c0.4-0.9,0.8-1.8,1.1-2.7c1.8-4.9,2.7-10,2.6-15.2
	C996.5,58.8,995.6,53.8,993.8,49z"/>
<path class="st1" d="M993.8,49c-1.7-4.6-4.2-8.9-7.6-12.6c-3.3-3.6-7.3-6.6-11.8-8.6c-4.9-2.2-10.2-3.2-15.5-3.1h-39l57.2,57.2h15.6
	c0.4-0.9,0.8-1.8,1.1-2.7c1.8-4.9,2.7-10,2.6-15.2C996.5,58.8,995.6,53.8,993.8,49z"/>
<path class="st1" d="M64.2,101.7c-7.9-2.5-15.4-5.1-22.4-7.8C35.2,91.5,29,88.1,23.3,84c-0.9-0.7-1.8-1.4-2.6-2.2l53.9,54.1h0.1
	c1.8,1.9,3.7,3.7,5.8,5.3c4.1,3,8.6,5.6,13.2,7.8c2.7-4.6,4.1-9.9,4-15.2c0-5.4-1-9.8-3-13.3c-2-3.5-4.7-6.5-7.9-8.9
	c-3.3-2.4-7-4.4-10.8-5.8C72,104.2,68.1,102.9,64.2,101.7z"/>
<path class="st0" d="M161.8,154.6l-51.8-52c2,2.2,3.7,4.5,5.3,7c3.5,5.8,5.3,13,5.3,21.5c0.2,7.8-1.4,15.6-4.7,22.8
	c-2.9,6.5-7.3,12.2-12.7,16.9c-5.5,4.6-12,8.1-18.9,10.2c-7.6,2.3-15.5,3.5-23.4,3.4c-8.2,0.1-16.3-1.3-23.9-4.1
	c-5.4-2-10.4-4.8-15-8.2l47.5,47.5c1.6,2.2,3.5,4.2,5.4,6.1c5.6,5.2,12.1,9.2,19.3,11.8c7.7,2.8,15.8,4.2,23.9,4.1
	c7.9,0.1,15.8-1.1,23.4-3.4c6.9-2.1,13.3-5.6,18.9-10.2c5.4-4.6,9.8-10.3,12.7-16.7c3.2-7.2,4.8-14.9,4.7-22.8
	c0-8.6-1.8-15.7-5.3-21.5C169.7,162.2,166.1,158,161.8,154.6z"/>
<path class="st0" d="M23,124.4c0.1,12,3.7,21.5,10.8,28.6s16.6,10.6,28.3,10.7L23,124.4z"/>
<polygon class="st1" points="1121.6,70.2 1121.6,24.7 1076.1,24.7 "/>
<path class="st0" d="M407.8,85.4c-1.8-2-3.7-3.9-5.7-5.6l-54.9-55.2v0.1c1.2,1.1,2.3,2.3,3.5,3.5c7.8,8.6,13.9,18.6,18,29.4
	c8.4,22.2,8.4,46.8,0,69c-4.1,10.9-10.2,20.9-18,29.5c-8,8.7-17.8,15.7-28.6,20.5c-11.2,5.1-23.9,7.7-38,7.7s-26.8-2.6-38-7.7
	c-9.6-4.3-18.3-10.2-25.8-17.6l-0.3,0.1l54.7,54.1c8,8.7,17.7,15.7,28.6,20.5c11.3,5.1,23.9,7.7,38,7.7c14.1,0,26.7-2.6,38-7.7
	c10.8-4.8,20.6-11.8,28.6-20.5c7.8-8.6,13.9-18.6,18-29.5c8.4-22.2,8.4-46.8,0-69C421.7,104,415.6,94,407.8,85.4z"/>
<path class="st0" d="M1381.7,42.4c-5.8-6.7-13-12.1-21-15.9c-26.3-12.5-57.6-6-76.8,15.9c-5.8,6.7-10.4,14.5-13.3,22.9
	c-3.1,8.6-4.7,17.7-4.7,26.8c0,9.1,1.6,18.1,4.7,26.7c3,8.4,7.5,16.1,13.3,22.8c5.9,6.7,13,12.1,21,16c6.1,2.9,12.7,4.8,19.4,5.5
	c-0.8-4.6-1.3-9.2-1.3-13.8c0-9.1,1.6-18.2,4.7-26.8c3-8.4,7.5-16.2,13.3-22.9c5.8-6.7,13-12.1,21-15.9c8.8-4.1,18.3-6.1,28-5.9
	c2.8,0,5.6,0.2,8.3,0.5c-0.8-4.4-1.9-8.8-3.4-13C1391.9,56.9,1387.5,49.2,1381.7,42.4z"/>
<polygon class="st0" points="1608.5,99.2 1586.4,61.2 1529.2,4 1608.5,140.2 "/>
<polygon class="st0" points="677.3,62 677.4,61.6 677.3,61.5 677.3,61.2 677,61.2 620.2,4.1 620.1,4.1 620.1,180.3 604.1,180.3 
	602.3,180.3 597,180.3 597,57.4 546.3,180.3 546.3,180.3 535.1,180.3 528.7,180.3 477.9,57.4 477.9,180.3 455,180 455,180.3 
	512.2,237.4 512.2,237.4 512.2,237.4 512.4,237.7 535.1,237.7 535,237.4 535.1,237.4 535.1,186.7 586.1,237.7 603.5,237.7 
	603.4,237.4 603.5,237.4 618.4,201.4 654.1,237.1 654.1,237.4 654.5,237.4 654.7,237.7 677.4,237.7 677.1,237.4 677.3,237.4 "/>
<polygon class="st0" points="808.7,24.7 732.6,24.7 732.6,82.3 808.7,82.3 808.7,103 732.6,103 732.6,159.6 808.7,159.6 
	808.7,160.2 865.9,160.2 865.9,159.9 865.9,139.5 865.9,139.3 809.8,83.2 865.9,83.2 865.9,81.9 865.9,61.2 808.7,4 "/>
<path class="st0" d="M1066.1,155.9c3.5-4.9,6.1-10.4,7.8-16.2c1.8-6,2.7-12.2,2.6-18.5c0-7.8-1.4-15.6-4.3-22.9
	c-2.8-7.1-6.9-13.6-12.2-19.1c-0.3-0.3-0.6-0.5-0.9-0.8V78L1002,20.8l0.1,0.4c0.2,0.2,0.5,0.5,0.8,0.7c5.3,5.5,9.4,12,12.2,19.1
	c2.9,7.3,4.3,15.1,4.3,22.9c0,6.3-0.9,12.5-2.6,18.5c-1.7,5.8-4.3,11.3-7.8,16.2c-3.5,4.9-7.6,9.3-12.3,13
	c-4.9,3.8-10.4,6.8-16.2,8.7l37,59.9h-26.2l-35-56.1h-36.2v56.1h-22.9l0,0l56.8,57.2l23.3,0.2l0.2-56.4h14.5l56.4,56.4h26.4
	l-0.2-0.2h0.2l-37-59.9c5.9-1.9,11.4-4.9,16.2-8.7C1058.5,165.2,1062.7,160.8,1066.1,155.9z"/>
<polygon class="st0" points="1688.6,61.2 1688.5,61.2 1631.4,4.1 1631.4,180.3 1606,180.3 1663.1,237.3 1663.2,237.4 1663.2,237.4 
	1663.5,237.7 1686.1,237.7 1686.1,237.4 1688.6,237.4 1688.6,236.8 1688.9,237.1 1688.6,103.9 "/>
<polygon class="st0" points="709.7,179.7 709.5,179.7 709.7,180 "/>
<polygon class="st0" points="808.7,160.2 808.7,180.3 710,180.3 767,237.8 865.9,238 865.9,237.4 865.9,217.4 865.9,216.8 
	865.3,216.8 "/>
<path class="st0" d="M1247.1,60.9l-56.8-56.8v20.6h-10.9l0,0h-34.8l-0.1-0.1v155.6h-22.9l57.2,57.2h22.9V82.1h40.7
	C1243.2,74.9,1244.7,67.8,1247.1,60.9z"/>
<polygon class="st1" points="991.2,180.3 1048.2,237.7 1074.4,237.4 1017.4,180.3 997.5,172.1 "/>
<path class="st1" d="M94.7,22.3L64,9.9l-25.4,5.9L24.9,29l54.7,54.7c4.1,1.5,8.1,3.2,12,5.1c0,0,7.4-10.8,26.2-10.9L94.7,22.3z"/>
<polygon class="st0" points="1526.7,44.1 1526.7,180.3 1503.8,180.3 1561,237.4 1583.9,237.4 1583.9,142.3 "/>
<path class="st0" d="M1456.6,85.4c-1.7-1.8-3.4-3.5-5.2-5.2L1396,24.6v0.1c1.2,1.1,2.3,2.3,3.4,3.5c7.8,8.6,13.9,18.6,18,29.4
	c8.4,22.2,8.4,46.8,0,69c-4.1,10.9-10.2,20.9-18,29.5c-8,8.7-17.8,15.7-28.6,20.5c-11.2,5.1-23.9,7.7-38,7.7s-26.8-2.6-38-7.7
	c-9.6-4.3-18.3-10.2-25.8-17.6l-0.3,0.1l54.5,53.9c0.1,0.1,0.2,0.2,0.2,0.2c8,8.7,17.8,15.7,28.6,20.5c11.2,5.1,23.9,7.7,38,7.7
	c14.1,0,26.8-2.6,38-7.7c10.8-4.8,20.6-11.8,28.6-20.5c7.8-8.6,13.9-18.6,18-29.5c8.4-22.2,8.4-46.8,0-69
	C1470.5,104,1464.4,94,1456.6,85.4z"/>
<polygon class="st1" points="808.7,103 865.9,160.2 808.7,160.2 808.7,159.6 794.2,159.6 732.6,103 "/>
<polygon class="st1" points="709.7,180.3 767,237.8 865.9,237.8 808.7,180.3 "/>
<polygon class="st1" points="808.7,24.7 732.8,24.7 790.5,82.3 808.7,82.3 810,83.2 865.9,83.2 "/>
<polygon class="st0" points="93.7,53.9 151.1,111.4 173.5,110.9 116.6,53.9 "/>
<path class="st1" d="M116,154c-3,6.5-7.3,12.2-12.7,16.8c-5.5,4.6-12,8.1-18.9,10.2c-7.6,2.3-15.5,3.5-23.4,3.4
	c-8.2,0.1-16.3-1.3-23.9-4.1c-5.4-2-10.4-4.8-15-8.2l47.5,47.5c1.6,2.2,3.5,4.2,5.4,6.1c5.6,5.2,12.1,9.2,19.3,11.8
	c7.7,2.8,15.8,4.2,23.9,4.1c7.9,0.1,15.8-1.1,23.4-3.4c6.9-2.1,13.3-5.6,18.9-10.2c5.4-4.6,9.8-10.3,12.7-16.7L116,154z"/>
<path class="st1" d="M353,153.9l-0.6,0.2c-0.6,0.7-1.1,1.4-1.7,2c-8,8.7-17.8,15.7-28.6,20.5c-11.2,5.1-23.9,7.7-38,7.7
	c-14.1,0-26.8-2.6-38-7.7c-9.6-4.3-18.3-10.2-25.8-17.6l-0.3,0.1l54.7,54.1c8,8.7,17.7,15.7,28.6,20.5c11.3,5.1,23.9,7.7,38,7.7
	s26.7-2.6,38-7.7c10.8-4.8,20.6-11.8,28.6-20.5c0.7-0.8,1.4-1.6,2.1-2.4L353,153.9z"/>
<path class="st1" d="M313.3,83.7c8.8-4.1,18.3-6.1,28-5.9c2.8,0,5.6,0.2,8.3,0.5c-0.8-4.4-1.9-8.8-3.5-13c-3-8.4-7.4-16.2-13.2-22.9
	c-5.8-6.7-13-12.1-21-15.9c-26.3-12.5-57.6-6-76.8,15.9c-5.8,6.7-10.4,14.5-13.3,22.9c-0.1,0.4-0.2,0.8-0.4,1.1l57.2,57.2
	c0.1-0.4,0.2-0.8,0.4-1.1c3-8.4,7.5-16.2,13.3-22.9C298.1,92.9,305.2,87.5,313.3,83.7z"/>
<path class="st1" d="M1402.4,153.9l-0.6,0.2c-0.6,0.7-1.1,1.4-1.7,2c-8,8.7-17.7,15.7-28.6,20.5c-11.2,5.1-23.9,7.7-38,7.7
	s-26.8-2.6-38-7.7c-9.6-4.3-18.3-10.2-25.8-17.6l-0.3,0.1l54.7,54.1c8,8.7,17.8,15.7,28.6,20.5c11.2,5.1,23.9,7.7,38,7.7
	s26.8-2.6,38-7.7c10.8-4.8,20.6-11.8,28.6-20.5c0.7-0.8,1.4-1.6,2.1-2.4L1402.4,153.9z"/>
<path class="st1" d="M1362.7,83.7c8.7-4.1,18.3-6.1,27.9-5.9c2.8,0,5.6,0.2,8.3,0.5c-0.8-4.4-1.9-8.8-3.4-13
	c-3-8.4-7.4-16.2-13.2-22.9c-5.8-6.7-13-12.1-21-15.9c-26.3-12.5-57.6-6-76.8,15.9c-5.8,6.7-10.4,14.5-13.3,22.9
	c-0.1,0.4-0.2,0.8-0.3,1.1l57.2,57.2c0.1-0.4,0.2-0.8,0.3-1.1c3-8.4,7.5-16.2,13.3-22.9C1347.5,92.9,1354.7,87.5,1362.7,83.7z"/>
<polygon class="st1" points="454.7,180 512.4,237.7 535,237.7 477.9,180.3 "/>
<polygon class="st1" points="586.1,237.7 528.7,180.3 546.3,180.3 603.4,237.4 "/>
<polygon class="st1" points="654.1,237.1 597,180.3 620.1,180.3 677.1,237.4 "/>
<polygon class="st1" points="597,93.5 597,57.4 586.4,82.9 "/>
<polygon class="st1" points="477.9,89.4 500.5,112 477.9,57.4 "/>
<polygon class="st1" points="919.9,124.1 977.3,181.3 991.8,181.3 991.2,180.3 956.2,124.1 "/>
<polygon class="st1" points="897,180.3 953.9,237.5 977.2,237.5 919.9,180.3 "/>
<polygon class="st1" points="1144.5,24.7 1201.7,82.1 1252.5,82.4 1190.3,24.7 "/>
<path class="st0" d="M1010.8,94.9l57.5,57.5c0,0-11.6,20.6-31.7,24.8l-56.3-56.9C980.4,120.3,1001.8,111,1010.8,94.9z"/>
<path class="st2" d="M23,124.1c0,12.1,3.6,21.7,10.8,28.8s16.9,10.7,28.9,10.7c10.2,0,18.6-2.7,25.2-8.1c6.5-5.4,9.8-12.7,9.8-21.9
	c0-5.4-1-9.8-3-13.3c-2-3.5-4.7-6.5-7.9-8.9c-3.3-2.4-7-4.4-10.8-5.8c-3.9-1.4-7.8-2.7-11.7-3.9c-7.9-2.5-15.4-5.1-22.4-7.8
	C35.3,91.5,29,88.1,23.4,84c-5.2-3.9-9.5-8.9-12.5-14.7c-3-5.9-4.5-13.3-4.5-22.1c-0.1-6.6,1.3-13.2,4.1-19.1
	c2.8-5.7,6.7-10.7,11.4-14.9c5.1-4.3,11-7.6,17.4-9.7C46.3,1.1,53.7-0.1,61.2,0c7.6-0.1,15.1,1.2,22.1,3.9c13.1,4.9,23.6,15,29,27.9
	c2.9,7,4.4,14.5,4.3,22H93.7c-0.2-10.1-3.1-18.1-8.7-24.1s-13.4-9-23.3-9.1c-9.7,0-17.6,2.3-23.5,7.1c-6,4.7-8.9,11.2-8.9,19.4
	c-0.2,4.2,0.8,8.4,2.8,12.2c1.8,3.2,4.3,6.1,7.3,8.3c3.2,2.4,6.7,4.3,10.4,5.8c4,1.6,8.1,3,12.2,4.2c6.7,2.2,13.5,4.6,20.5,7.3
	c6.7,2.6,13.1,5.9,19,10.1c5.6,3.9,10.3,8.9,13.8,14.7c3.5,5.8,5.3,13,5.3,21.5c0.2,7.8-1.4,15.6-4.7,22.8
	c-3,6.4-7.3,12.2-12.7,16.7c-5.5,4.6-12,8.1-18.9,10.2c-7.6,2.3-15.5,3.5-23.4,3.4c-8.2,0.1-16.3-1.3-23.9-4.1
	c-7.1-2.6-13.7-6.6-19.3-11.8c-5.6-5.3-10-11.8-13-18.9c-3.3-8-4.9-16.6-4.8-25.3L23,124.1z"/>
<path class="st2" d="M284,184.3c-14.1,0-26.8-2.6-38-7.7c-10.8-4.8-20.5-11.8-28.6-20.5c-7.8-8.6-13.9-18.6-18-29.5
	c-8.4-22.2-8.4-46.8,0-69c4.1-10.9,10.2-20.9,18-29.4c8-8.7,17.7-15.7,28.5-20.5C257.2,2.6,269.9,0,284,0c14.1,0,26.8,2.6,38,7.7
	c10.8,4.8,20.6,11.8,28.6,20.5c7.8,8.6,13.9,18.6,18,29.4c8.4,22.2,8.4,46.8,0,69c-4.1,10.9-10.2,20.9-18,29.5
	c-8,8.7-17.8,15.7-28.6,20.5C310.8,181.7,298.1,184.3,284,184.3z M284,163.6c9.6,0.1,19.1-1.9,27.8-6c8-3.8,15.2-9.3,21-16
	c5.8-6.7,10.2-14.4,13.2-22.8c3.1-8.6,4.7-17.6,4.7-26.7c0-9.1-1.6-18.2-4.7-26.8c-3-8.4-7.4-16.2-13.2-22.9
	c-5.8-6.7-13-12.1-21-15.9c-26.3-12.5-57.6-6-76.8,15.8c-5.8,6.7-10.4,14.5-13.3,22.9c-3.1,8.6-4.7,17.7-4.7,26.8
	c0,9.1,1.6,18.1,4.7,26.7c3,8.4,7.5,16.1,13.3,22.8c5.9,6.7,13,12.1,21,16C264.8,161.7,274.4,163.8,284,163.6L284,163.6z"/>
<path class="st2" d="M620.1,180.3H597V57.4l-50.6,122.9h-17.6L477.9,57.4v122.9l-23.2-0.2V3.8L477.1,4l60.4,141L598,4h22.2
	L620.1,180.3z"/>
<path class="st2" d="M732.6,24.7v57.6h76V103h-76v56.6h76v20.6h-98.9V4h98.9v20.7H732.6z"/>
<path class="st2" d="M897,4H959c8.5-0.1,17,1.5,24.9,4.8c7.2,3,13.6,7.5,19,13.1c5.3,5.5,9.4,12,12.2,19.1
	c2.9,7.3,4.3,15.1,4.3,22.9c0,6.3-0.9,12.5-2.6,18.5c-1.7,5.8-4.3,11.3-7.8,16.2c-3.5,4.9-7.6,9.3-12.3,13
	c-4.9,3.8-10.4,6.8-16.2,8.7l37,59.9h-26.2l-35-56.1h-36.2v56.1H897L897,4z M959,103.2c15.6,0.3,29.6-9.4,34.9-24.1
	c1.8-4.9,2.7-10,2.6-15.2c0-5.1-0.9-10.2-2.6-15c-1.7-4.6-4.2-8.9-7.6-12.6c-3.3-3.6-7.3-6.5-11.8-8.5c-4.9-2.2-10.2-3.2-15.5-3.1
	h-39v78.5H959z"/>
<path class="st2" d="M1121.6,24.7H1076V4h114.3v20.7h-45.8v155.5h-22.9V24.7z"/>
<path class="st2" d="M1332.8,184.3c-14.1,0-26.8-2.6-38-7.7c-10.8-4.8-20.5-11.8-28.6-20.5c-7.8-8.6-13.9-18.6-18-29.5
	c-8.4-22.2-8.4-46.8,0-69c4.1-10.9,10.2-20.9,18-29.4c8-8.7,17.7-15.7,28.5-20.5c11.3-5.1,23.9-7.7,38-7.7c14.1,0,26.7,2.6,38,7.7
	c10.8,4.8,20.6,11.8,28.7,20.5c7.8,8.6,13.9,18.6,18,29.4c8.4,22.2,8.4,46.8,0,69c-4.1,10.9-10.2,20.9-18,29.5
	c-8,8.7-17.8,15.7-28.6,20.5C1359.6,181.7,1346.9,184.3,1332.8,184.3z M1332.8,163.6c9.6,0.1,19.1-1.9,27.8-6c8-3.8,15.2-9.3,21-16
	c5.8-6.7,10.2-14.4,13.2-22.8c3.1-8.6,4.7-17.6,4.7-26.7c0-9.1-1.6-18.2-4.7-26.8c-3-8.4-7.4-16.2-13.2-22.9
	c-5.8-6.7-13-12.1-21-15.9c-26.3-12.5-57.6-6-76.8,15.9c-5.8,6.7-10.4,14.5-13.3,22.9c-3.1,8.6-4.7,17.7-4.7,26.8
	c0,9.1,1.6,18.1,4.7,26.7c3,8.4,7.5,16.1,13.3,22.8c5.9,6.7,13,12.1,21,16C1313.6,161.8,1323.2,163.8,1332.8,163.6L1332.8,163.6z"/>
<path class="st2" d="M1608.5,140.2V4h23v176.2H1606l-79.3-136.2v136.2h-22.9V4h25.4L1608.5,140.2z"/>
<polygon class="st1" points="1121.6,180.3 1178.8,237.4 1201.7,237.4 1144.5,180.3 "/>
<polygon class="st1" points="1503.8,180.3 1561,237.4 1583.9,237.4 1526.7,180.3 "/>
<polygon class="st1" points="1606,180.3 1663.1,237.3 1688.6,237.3 1631.4,180.3 "/>
<polygon class="st1" points="1526.7,76.1 1572,121.4 1526.7,44.2 "/>
<polygon class="st0" points="874.4,396.4 852.3,358.5 795.1,301.3 874.4,437.5 "/>
<path class="st0" d="M1228.3,460.9l-39.5-39.5c0,12.1,3.6,21.7,10.8,28.8S1216.4,460.9,1228.3,460.9z"/>
<polygon class="st0" points="536.6,376.2 531,358.5 473.9,301.3 516.7,437.7 "/>
<path class="st0" d="M1278.2,329.1c2.9,7,4.4,14.5,4.3,22h-22.9c-0.2-10.1-3.1-18.1-8.7-24.2c-5.6-6-13.4-9.1-23.3-9.1
	c-9.7,0-17.6,2.4-23.5,7c-6,4.7-8.9,11.2-8.9,19.4c-0.1,4.2,0.8,8.4,2.8,12.2c1.8,3.3,4.3,6.1,7.3,8.3c3.2,2.4,6.7,4.3,10.4,5.8
	c4,1.6,8.1,3,12.2,4.2c6.7,2.2,13.6,4.6,20.5,7.3c3,1.2,6,2.5,8.9,4c1.2-1.5,2.5-2.8,4-4c5.7-4.5,13.2-6.8,22.3-7l33.2,33.2h22.9
	c0.1-7.5-1.4-15-4.3-22c-2.7-6.4-6.6-12.2-11.6-17c-0.5-0.5-1.1-1-1.7-1.5l-52.4-52.4C1273.3,319.5,1276.1,324.1,1278.2,329.1z"/>
<polygon class="st0" points="432.7,377.2 426.6,358.5 369.4,301.3 413.7,437.7 "/>
<path class="st0" d="M1238.3,430.4c2.3,3,5.1,5.7,8.1,8c4.1,3,8.6,5.6,13.2,7.7c2.7-4.6,4.1-9.9,4-15.2c0-5.4-1-9.8-3-13.3
	c-2-3.5-4.7-6.5-7.9-8.9c-3.3-2.4-7-4.4-10.8-5.8c-3.9-1.4-7.9-2.7-11.7-3.9c-7.9-2.5-15.4-5.1-22.4-7.8c-6.6-2.4-12.8-5.8-18.5-9.9
	c-2.8-2.1-5.3-4.5-7.5-7.3l-0.6-0.2L1238.3,430.4z"/>
<polygon class="st0" points="465,341.1 422.5,477.5 405.4,477.5 462.6,534.7 479.7,534.7 502.7,461 "/>
<polygon class="st0" points="897.3,477.5 871.9,477.5 929.1,534.7 954.5,534.7 954.5,358.5 897.3,301.3 "/>
<polygon class="st0" points="680,477.5 656.4,477.5 713.6,534.7 737.2,534.7 737.2,358.5 680,301.3 "/>
<polygon class="st0" points="524.7,477.5 507.8,477.5 565,534.7 581.9,534.7 642.3,358.5 585.1,301.3 "/>
<polygon class="st0" points="792.6,341.3 792.6,477.5 769.7,477.5 826.9,534.7 849.8,534.7 849.8,439.5 "/>
<path class="st0" d="M1179.6,461.2h-0.2l2.3,2.3C1181,462.7,1180.2,462,1179.6,461.2z"/>
<polygon class="st0" points="1085.9,321.9 1009.8,321.9 1009.8,379.6 1085.9,379.6 1085.9,400.2 1009.8,400.2 1009.8,456.9 
	1085.9,456.9 1085.9,477.5 986.9,477.5 1044.1,534.7 1143.1,534.7 1143.1,514.1 1086.5,457.5 1143.1,457.4 1143.1,436.8 
	1086.1,379.9 1143.1,379.9 1143.1,358.5 1085.9,301.3 "/>
<path class="st0" d="M1338.5,464.1c-2.8-4.5-6.3-8.6-10.4-12l-49.9-50.1l-0.2,0.3c1.2,1.5,2.3,3,3.2,4.7c3.5,5.8,5.3,13,5.3,21.5
	c0.1,7.8-1.4,15.6-4.7,22.8c-3,6.4-7.3,12.2-12.7,16.7c-5.5,4.6-12,8.1-18.9,10.2c-7.6,2.3-15.5,3.5-23.4,3.4
	c-8.2,0.1-16.3-1.3-23.9-4.2c-6.9-2.5-13.2-6.4-18.7-11.3l52.3,52.3h0.2c1.3,1.5,2.6,3,4.1,4.3c5.6,5.2,12.1,9.2,19.3,11.8
	c7.7,2.8,15.8,4.2,23.9,4.2c7.9,0.1,15.8-1.1,23.4-3.4c6.9-2.1,13.3-5.6,18.9-10.2c5.4-4.6,9.8-10.3,12.7-16.7
	c3.2-7.2,4.8-14.9,4.7-22.8C1343.7,477,1342,469.8,1338.5,464.1z"/>
<polygon class="st1" points="1083.5,400.2 1140.7,457.4 1083.5,457.4 1083.5,456.9 1069.1,456.8 1007.5,400.2 "/>
<polygon class="st1" points="986.4,477.5 1043.7,535.1 1142.5,535.1 1085.3,477.5 "/>
<polygon class="st1" points="1083.5,321.9 1007.7,321.9 1065.3,379.6 1083.5,379.6 1084.8,380.5 1140.7,380.5 "/>
<path class="st1" d="M1229.6,399c-7.9-2.5-15.4-5.1-22.4-7.8c-6.6-2.4-12.8-5.8-18.5-9.9c-0.9-0.7-1.8-1.5-2.6-2.2l53.9,54.1h0.1
	c1.8,1.9,3.7,3.7,5.8,5.3c4.1,3,8.6,5.6,13.2,7.7c2.7-4.6,4.1-9.9,4-15.2c0-5.4-1-9.8-3-13.3c-2-3.5-4.7-6.5-7.9-8.9
	c-3.3-2.4-7-4.4-10.8-5.8C1237.4,401.4,1233.5,400.1,1229.6,399z"/>
<path class="st1" d="M1260.1,319.5l-30.7-12.4L1204,313l-13.7,13.2l54.7,54.7c4.1,1.5,8.1,3.2,12,5.1c0,0,7.4-10.8,26.2-10.9
	L1260.1,319.5z"/>
<polygon class="st1" points="1259.1,351.1 1316.5,408.6 1338.9,408.1 1282,351.1 "/>
<path class="st1" d="M1281.4,451.2c-3,6.4-7.3,12.2-12.7,16.7c-5.5,4.6-12,8.1-18.9,10.2c-7.6,2.3-15.5,3.5-23.4,3.4
	c-8.2,0.1-16.3-1.3-23.9-4.2c-5.4-2-10.4-4.8-15-8.2l47.5,47.5c1.6,2.2,3.5,4.2,5.4,6.1c5.6,5.2,12.1,9.2,19.3,11.8
	c7.7,2.8,15.8,4.2,23.9,4.2c7.9,0.1,15.8-1.1,23.4-3.4c6.9-2.1,13.3-5.6,18.9-10.2c5.4-4.6,9.8-10.3,12.7-16.7L1281.4,451.2z"/>
<polygon class="st0" points="454.3,373.4 499.5,418.7 465.3,341.4 "/>
<path class="st2" d="M465,341.1l-42.6,136.5h-17.1l-60.2-176.2h24.2l44.3,136.4l42.8-136.4h17.4l42.8,136.4L561,301.3h24.2
	l-60.4,176.2h-16.9L465,341.1z"/>
<path class="st2" d="M656.4,301.3H680v176.2h-23.7V301.3z"/>
<path class="st2" d="M874.4,437.5V301.3h22.9v176.2h-25.4l-79.3-136.2v136.2h-22.9V301.3h25.4L874.4,437.5z"/>
<path class="st2" d="M1009.8,321.9v57.7h76v20.6h-76v56.7h76v20.6h-98.9V301.3h98.9v20.6H1009.8z"/>
<path class="st2" d="M1188.8,421.4c0,12.1,3.6,21.7,10.8,28.8s16.9,10.7,29,10.7c10.2,0,18.6-2.7,25.2-8.1
	c6.5-5.4,9.8-12.7,9.8-21.9c0-5.4-1-9.8-3-13.3c-2-3.5-4.7-6.5-7.9-8.9c-3.3-2.4-7-4.4-10.8-5.8c-3.9-1.4-7.8-2.7-11.7-3.9
	c-7.9-2.5-15.4-5.1-22.4-7.8c-6.6-2.4-12.8-5.8-18.5-9.9c-5.2-3.9-9.5-8.9-12.5-14.7c-3-5.9-4.5-13.3-4.5-22.2
	c-0.1-6.6,1.3-13.2,4.2-19.1c2.8-5.7,6.7-10.7,11.5-14.9c5.1-4.3,11-7.6,17.4-9.7c7.1-2.3,14.5-3.5,21.9-3.4
	c7.6-0.1,15.1,1.2,22.2,3.9c13.1,4.9,23.6,15,29,27.9c2.9,7,4.4,14.5,4.3,22h-22.9c-0.2-10.1-3.1-18.1-8.7-24.2
	c-5.6-6-13.4-9.1-23.3-9.1c-9.7,0-17.6,2.3-23.5,7c-6,4.7-8.9,11.2-8.9,19.4c-0.1,4.2,0.8,8.4,2.8,12.2c1.8,3.3,4.3,6.1,7.3,8.3
	c3.2,2.4,6.7,4.3,10.4,5.8c4,1.6,8.1,3,12.2,4.2c6.7,2.2,13.6,4.6,20.5,7.3c6.7,2.6,13.1,5.9,19,10.1c5.6,3.9,10.3,8.9,13.8,14.7
	c3.5,5.8,5.3,13,5.3,21.5c0.1,7.8-1.4,15.6-4.7,22.8c-3,6.4-7.3,12.2-12.7,16.7c-5.5,4.6-12,8.1-18.9,10.2
	c-7.6,2.3-15.5,3.5-23.4,3.4c-8.2,0.1-16.3-1.3-23.9-4.2c-7.1-2.6-13.7-6.6-19.3-11.8c-5.6-5.3-10-11.7-13-18.9
	c-3.3-8-4.9-16.6-4.8-25.3L1188.8,421.4z"/>
<polygon class="st1" points="770.1,477.5 827.3,534.7 850.2,534.7 793,477.5 "/>
<polygon class="st1" points="872.3,477.5 929.4,534.5 954.9,534.5 897.7,477.5 "/>
<polygon class="st0" points="793,373.4 838.3,418.7 793,341.4 "/>
<polygon class="st1" points="405.4,477.5 462.6,534.7 479.7,534.7 422.5,477.5 "/>
<polygon class="st1" points="507.7,477.5 564.8,534.7 582,534.7 524.8,477.5 "/>
<polygon class="st1" points="656.5,477.5 713.7,534.7 737.4,534.7 680.2,477.5 "/>
</svg>
